<svg width="1512" height="967" viewBox="0 0 1512 967" fill="none" xmlns="http://www.w3.org/2000/svg">
<path d="M1522.14 329.01C1507.7 325.016 1495.65 318.036 1479.02 316.922C1479.52 313.002 1480.03 309.067 1480.38 305.267C1469.53 307.977 1461.74 303.537 1454.25 300.335C1431.82 299.112 1413.09 291.33 1390.05 291.283C1390.28 293.175 1390.69 296.984 1390.92 298.876C1390.26 292.332 1384.7 286.715 1373.17 288.78C1372.89 286.267 1372.3 281.233 1372.07 278.697C1373.62 280.541 1376.8 284.189 1378.36 286.034C1381.72 284.197 1385.07 282.426 1388.43 280.7C1387.98 282.462 1387.08 285.925 1386.63 287.657C1391.15 286.912 1400.28 288.527 1396.39 282.167C1408.84 283.724 1420.97 289.549 1434.85 284.394C1433.39 285.247 1430.45 286.955 1428.99 287.807C1434.17 289.5 1439.38 291.25 1443.63 293.809C1444.49 293.347 1446.25 292.384 1447.11 291.907C1463.25 294.133 1480.65 298.954 1498.15 294.464C1494.23 291.228 1490.18 288.139 1486.29 284.946C1485.14 285.642 1482.83 287.048 1481.7 287.771C1451.8 281.666 1423.85 269.665 1390.48 270.116C1390.13 266.924 1389.74 263.786 1389.4 260.687C1387.76 263.638 1386.11 266.62 1384.37 269.663C1383.55 268.677 1381.89 266.693 1381.09 265.687C1371.91 265.678 1358.37 267.91 1356.94 260.01C1353.94 261.541 1350.89 263.171 1347.77 264.828C1346.2 263.912 1343.05 262.14 1341.48 261.239C1340.31 261.811 1337.94 262.914 1336.78 263.486C1332.73 260.192 1326.24 259.391 1319.96 258.637C1317.87 259.132 1313.72 260.118 1311.63 260.613C1311.65 256.91 1309.05 254.506 1302.79 254.626L1302.07 260.286C1292.63 254.894 1279.3 254.789 1266.78 253.636C1266.01 254.93 1264.54 257.539 1263.8 258.861C1262.76 257.642 1260.6 255.232 1259.56 254.06C1239.49 256.612 1219.34 255.538 1201.26 251.997C1194.99 252.01 1187.3 253.495 1184.15 249.169C1181.76 249.616 1177.01 250.476 1174.64 250.919C1174.63 249.918 1174.63 247.88 1174.64 246.859C1160.01 251.471 1145.59 248.07 1131.55 247.245C1131.7 244.117 1131.15 241.083 1127.43 239.258C1125.86 240.911 1122.8 244.175 1121.28 245.821C1120.71 244.89 1119.64 242.985 1119.07 242.054C1111.17 243.415 1102.93 245.41 1095.62 243.388C1084.49 240.874 1070.23 244.347 1060.83 239.356C1052.04 239.773 1043 240.635 1034.79 239.129C1037.97 236.663 1041.12 234.185 1044.2 231.78C1039.75 233.786 1035.27 235.841 1030.78 237.962C1032.06 230.035 1017.28 232.693 1009.95 231.757C1000.23 230.39 991.389 237.602 981.738 236.882C971.237 235.808 956.803 236.595 955.004 227.968C953.676 229.114 951.02 231.39 949.667 232.524C944.455 230.758 938.116 232.207 932.113 232.899C917.187 233.229 901.91 232.14 887.838 230.363C886.17 231.091 882.735 232.546 881.045 233.293C879.176 231.043 877.312 228.838 875.354 226.679C868.412 227.328 861.424 228.015 854.447 228.576C851.653 225.966 848.795 223.444 845.68 221.057C848.35 225.237 851.622 229.075 854.579 233.18C847.036 232.385 839.528 231.46 831.996 230.538C831.081 229.363 829.245 226.966 828.327 225.759C825.623 226.24 820.163 227.177 817.456 227.626C813.05 223.541 803.422 220.325 795.831 225.417C791.845 224.512 787.772 225.078 783.709 227.086C782.497 226.128 780.029 224.252 778.769 223.302C775.215 225.246 771.569 227.236 767.904 229.291C767.285 227.224 766 223.095 765.381 221.028C764.022 223.464 762.647 225.98 761.178 228.543C750.926 227.273 740.511 225.857 732.58 221.72L736.245 226.907C728.222 226.453 720.026 225.76 713.795 222.772C714.071 224.406 714.252 226.071 714.371 227.84C716.012 228.669 719.287 230.279 720.928 231.107C704.631 233.311 691.062 231.19 679.892 224.873C680.547 226.825 681.86 230.745 682.519 232.729C678.722 232.437 674.883 232.215 671.026 232.043C669.137 228.478 667.119 225.09 665.023 221.651C665.742 225.318 666.528 228.928 667.231 232.676C652.006 231.61 634.738 234.387 622.952 228.071C615.917 236.008 603.545 232.448 593.507 232.917C592.526 231.594 590.591 228.962 589.586 227.643C585.925 229.729 582.247 231.881 578.549 234.083C569.944 234.157 561.258 234.386 552.582 234.488C550.586 231.974 548.474 229.525 546.248 227.157C546.753 229.086 547.765 232.958 548.27 234.887C531.06 233.673 511.698 237.792 496.008 233.13C491.181 234.001 486.264 234.948 481.328 235.946C479.983 234.445 477.294 231.443 475.901 229.949C474.14 231.397 470.567 234.3 468.802 235.717C467.433 234.894 464.691 233.217 463.319 232.363C460.913 232.421 456.053 232.529 453.597 232.579C452.999 231.605 451.795 229.581 451.196 228.607C437.279 233.908 421.862 235.834 406.978 237.898C402.375 234.502 395.569 233.013 389.05 231.449C384.074 233.206 379.028 235.004 373.887 236.833C371.362 235.341 368.794 233.904 366.157 232.508C359.742 235.522 352.651 237.526 345.449 239.407C344.86 238.29 343.609 236.069 343.02 234.953L335.856 233.113C335.355 234.836 334.326 238.271 333.823 239.98C333.149 238.312 331.828 234.989 331.178 233.318C329.532 234.92 326.269 238.183 324.602 239.82C320.394 238.464 316.47 236.781 312.217 235.462C312.073 237.303 311.736 240.992 311.568 242.837C311.054 242.415 310.048 241.535 309.581 241.09C312.724 233.331 300.682 235.52 294.368 240.132C294.186 238.232 293.766 234.378 293.556 232.45C292.383 235.234 291.243 238.106 290.18 240.998L285.174 241.803C283.595 238.598 281.71 235.754 279.953 232.717C281.456 242.691 266.731 238.538 257.973 239.012C257.032 238.28 255.194 236.761 254.277 236.025C254.084 237.873 253.701 241.585 253.531 243.414C251.947 242.655 248.75 241.095 247.169 240.352C245.132 240.635 241.06 241.201 239.022 241.469C238.044 240.397 236.019 238.296 235.018 237.243C219.154 241.841 202.8 242.392 186.591 244.943C186.412 243.528 186.055 240.699 185.878 239.299C183.753 243.061 181.829 247.089 177.952 250.588C170.627 252.472 167.098 245.367 160.08 248.489C152.271 250.902 144.38 253.014 136.12 254.227C136.276 250.457 136.288 246.724 136.064 243.074C135.11 246.749 134.471 250.375 133.657 254.2C129.56 254.096 125.362 254.181 121.133 254.442L119.606 255.336C114.419 255.839 108.692 257.257 104.174 255.54C83.9468 260.295 63.0147 261.286 42.8259 266.396C42.4696 264.93 41.7277 261.956 41.3731 260.506C35.7138 263.904 23.6268 275.851 21.2245 265.985C15.5554 271.329 8.15651 275.701 0.573083 279.961C0.0773038 278.344 -0.991898 275.076 -1.51356 273.448C-2.17778 273.676 -3.5563 274.124 -4.2222 274.336C-3.49759 276.247 -2.81466 278.226 -2.19931 280.263C-3.3672 281.29 -5.77057 283.402 -6.93512 284.459C11.9138 350.949 30.5929 418.14 46.0573 485.639C49.3571 486.791 52.5684 488.035 55.7607 489.329L49.9703 491.07C50.8648 493.863 51.5674 496.702 52.204 499.613C131.358 508.787 216.854 498.231 299.033 497.436C435.584 493.37 570.888 495.705 703.246 505.345L700.977 501.682C704.445 503.248 708.018 504.655 711.398 506.312C710.515 508.377 708.699 512.498 707.768 514.57C706.508 513.84 703.919 512.437 702.612 511.73C688.75 514.607 675.096 513.283 661.001 516.04C658.619 513.148 654.86 511.392 649.818 510.744C649.79 512.066 649.736 514.739 649.711 516.091C641.414 517.184 634.444 516.004 627.571 513.898C627.321 515.442 626.82 518.529 626.57 520.073C608.832 520.116 591.135 519.855 573.096 521.654C573.542 520.331 574.413 517.704 574.86 516.381C570.782 519.158 566.69 522.032 562.58 524.971C562.324 522.847 561.861 518.592 561.607 516.484C560.233 518.326 557.466 522.077 556.094 523.935C553.493 522.424 548.269 519.422 545.62 517.918C545.239 520.517 545.061 522.958 544.527 525.737C532.897 525.151 520.905 525.529 509.379 524.535C508.076 526.131 505.425 529.363 504.098 530.963C483.09 531.025 461.918 532.524 440.634 534.353L439.754 531.918C431.738 538.314 419.633 538.334 409.035 540.222C407.72 539.218 405.061 537.167 403.722 536.167C350.275 553.373 289.722 554.355 234.328 569.04C235.123 572.727 235.898 576.464 236.631 580.254C240.265 579.505 247.485 578.013 251.068 577.24C252.632 579.633 254.171 582.013 255.671 584.493C252.226 584.947 245.459 585.851 242.017 586.336C241.869 585.199 241.596 582.92 241.448 581.783C233.124 591.001 216.452 593.373 203.463 598.389L202.452 603.123C205.648 602.41 212.012 600.972 215.208 600.259C211.838 601.861 208.36 603.59 204.854 605.291C203.096 603.838 199.579 600.917 197.823 599.479C191.992 603.327 186.06 607.16 180.139 611.1C171.252 613.099 162.311 615.06 153.203 616.843C147.498 620.954 141.902 625.157 136.576 629.586C129.867 630.794 123.13 631.976 116.379 633.034C112.596 635.359 108.858 637.645 104.915 640.073C110.365 640.407 115.721 640.786 121.056 641.185C127.046 637.438 132.959 633.656 138.723 629.866C139.626 631.153 141.477 633.689 142.381 634.991C136.025 638.544 127.371 641.103 125.344 646.903C140.264 641.997 170.785 622.609 178.972 637.46C167.988 639.423 156.946 641.521 145.895 643.541C144.639 645.334 142.027 648.92 140.747 650.732C138.581 641.222 131.233 651.496 126.534 653.084C125.388 651.38 123.169 647.945 122.05 646.252C117.084 648.336 112.061 650.57 107.091 652.842C110.651 652.089 117.692 650.531 121.202 649.769C121.7 651.856 122.745 656.037 123.243 658.123C120.168 658.583 113.97 659.524 110.871 659.987L111.753 662.438C98.2799 665.945 85.3896 670.962 74.8357 678C76.7723 678.611 80.6989 679.87 82.6614 680.491C82.9075 685.015 83.1654 689.647 83.3506 694.29C87.1656 692.713 90.9614 691.187 94.6913 689.733C94.8278 690.762 95.0301 692.847 95.165 693.861C109.447 690.557 123.691 691.65 138.07 688.551C137.887 689.128 137.544 690.278 137.383 690.836C132.003 692.043 126.611 693.378 121.433 695.322C121.509 696.47 121.709 698.759 121.809 699.904C119.569 697.867 117.312 695.896 115.083 693.951C110.697 696.384 106.225 698.941 101.78 701.508C101.28 699.171 100.715 696.923 100.055 694.704C89.8077 701.617 77.574 707.693 68.6753 715.244C66.7744 715.867 62.945 717.085 61.0408 717.677C70.7782 716.252 80.4705 714.864 90.1135 713.249C88.8725 714.962 86.4198 718.429 85.2047 720.153C102.388 722.029 119.555 723.971 136.702 725.963C118.27 727.995 101.887 723.079 83.9167 723.017C84.4101 724.838 85.4954 728.479 85.9887 730.3C81.2934 728.987 76.5547 727.728 71.7451 726.496C70.8614 728.325 69.9326 730.193 68.938 732.134C80.1682 736.514 91.4885 740.816 103.213 744.759C99.8601 744.932 93.1084 745.301 89.7559 745.473C92.5307 749.717 97.5512 751.982 104.872 752.325C106.141 751.095 108.63 748.641 109.896 747.379C111.138 747.94 113.591 749.003 114.809 749.568L106.366 750.903C111.493 758.89 123.746 762.265 136.951 762.859C136.659 764.017 135.982 766.395 135.669 767.588C199.9 773.046 267.58 764.975 333.922 760.435C336.295 758.955 338.611 757.625 340.817 756.407C344.453 761.787 354.835 756.781 361.96 756.23C368.74 755.214 381.19 758.135 382.719 751.612C383.186 752.512 384.096 754.316 384.563 755.215C464.341 749.54 544.511 742.503 624.232 737.668C625.313 736.748 627.453 734.928 628.488 734.032C629.782 736.654 632.522 738.316 636.735 739.044C638.628 737.67 642.468 734.961 644.385 733.583C663.526 737.618 685.73 735.427 706.695 734.964C706.239 733.937 705.377 731.891 704.921 730.864C709.255 732.484 713.616 734.114 717.908 735.787C718.374 734.414 719.359 731.707 719.849 730.33C724.247 737.05 738.534 733.339 747.761 734.688L744.705 731.476C754.395 737.081 769.077 734.061 781.842 734.002C847.341 733.244 913.018 732.773 978.283 731.91C978.958 731.1 980.375 729.423 981.05 728.614C985.815 733.051 997.544 732.745 1003.47 727.502C1003.54 728.37 1003.65 730.061 1003.69 730.901C1010.19 730.87 1016.66 730.889 1023.1 731.055C1023.38 729.819 1023.93 727.368 1024.19 726.136C1027.07 726.35 1029.9 726.633 1032.7 726.97C1031.37 728.131 1028.74 730.434 1027.37 731.603C1098.02 725.769 1169.78 726.678 1235.93 735.478C1278.96 734.71 1322.73 740.13 1367.61 734.405C1368.4 733.045 1370 730.321 1370.8 728.927C1371.01 730.18 1371.46 732.713 1371.67 733.997C1379.6 732.004 1387.44 730.261 1395.27 728.314L1394.42 731.535C1411.01 727.499 1428.37 726.071 1444.42 720.503C1443.78 719.317 1442.52 716.988 1441.87 715.818C1423.24 718.272 1403.59 720.837 1387.26 716.18C1387.11 715.748 1386.84 714.864 1386.72 714.413C1398.37 712.237 1409.57 708.861 1420.78 705.625C1419.47 707.144 1416.94 710.168 1415.68 711.695C1420.23 711.871 1429.39 712.18 1433.94 712.324C1433.56 710.705 1432.75 707.476 1432.32 705.833C1435.23 705.4 1441.04 704.534 1443.94 704.07C1443.61 702.835 1443.02 700.325 1442.68 699.075C1445.95 698.601 1452.49 697.638 1455.76 697.164C1450.52 695.968 1445.18 694.849 1439.85 693.791C1451.95 692.204 1463.95 690.272 1476 688.661C1473.71 688.138 1469.21 687.061 1466.94 686.534C1469.5 680.04 1480.77 678.001 1486.18 681.979C1486.19 680.535 1486.12 677.645 1486.09 676.208C1499.42 675.435 1512.32 676.216 1524.35 678.638C1525.51 668.269 1509.85 674.294 1499.69 675.409L1499.49 670.438C1490.15 674.17 1480.44 677.41 1470.1 679.149C1467.2 683.719 1460.53 683.087 1455.01 683.014C1456.64 678.985 1459.32 675.122 1462.27 671.422C1464.16 672.352 1467.98 674.192 1469.88 675.122C1473.05 668.283 1476.43 660.456 1467.25 656.386C1461.21 657.633 1457.23 655.411 1453.93 652.895C1452.79 653.98 1450.54 656.176 1449.41 657.277C1448.19 653.546 1446.9 649.841 1445.53 646.26C1441.89 647.417 1438.2 648.629 1434.48 649.879C1434.96 647.312 1435.4 644.829 1435.78 642.388C1433.29 641.644 1428.32 640.138 1425.83 639.378C1425.89 641.047 1426.03 644.411 1426.09 646.079C1425.41 646.153 1423.98 646.327 1423.3 646.417C1419.33 632.826 1409.9 642.967 1403.85 625.09C1421.69 629.389 1439.62 633.596 1456.44 639.103C1401.74 612.059 1325 607.639 1258.62 595.051C1220.25 588.656 1179.45 583.952 1141.31 576.487C1096.15 568.083 1044.24 568.92 1000.79 559.06C1057.76 563.76 1115.72 567.443 1169.93 577.443C1172.14 576.945 1174.31 576.516 1176.41 576.175C1181.86 578.516 1188.13 580.01 1194.5 581.33C1195.73 580.905 1198.2 580.084 1199.49 579.682C1206.15 583.231 1214.29 586.409 1224.27 583.332C1245.01 591.023 1272.01 589.864 1293.42 596.684L1293.53 592.011C1296.37 594.144 1299.16 596.345 1301.97 598.593C1303.74 597.942 1307.32 596.622 1309.09 595.972C1341.98 606.726 1384.6 607.401 1417.83 619.011C1416.2 613.745 1414.2 608.723 1413.01 603.452C1410.47 605.913 1407.87 608.416 1405.09 610.946C1403.79 606.648 1402.52 602.439 1399.44 598.761C1399.55 600.938 1399.73 605.3 1399.84 607.477C1386.81 605.524 1376.86 601.84 1373.23 593.151C1373.84 595.581 1374.99 600.483 1375.55 602.92C1372.54 601.723 1366.45 599.356 1363.44 598.159C1360.65 598.261 1355.01 598.458 1352.21 598.56C1352.67 597.079 1353.62 594.095 1354.06 592.633C1352.29 593.375 1348.79 594.858 1347.02 595.6C1320.46 592.994 1297.61 586.849 1274.54 580.615C1272.99 578.77 1271.35 577.017 1269.68 575.298C1250.6 575.613 1237.85 566.122 1219.73 565.111C1219.56 563.804 1219.2 561.149 1219.03 559.811C1233 564.708 1234.12 560.818 1232.4 551.803C1233.54 552.71 1234.63 553.686 1235.65 554.75C1234.59 558.536 1233.58 562.376 1232.55 566.251C1238.23 565.091 1243.9 564.043 1249.52 563.033C1249.64 565.006 1249.91 568.883 1250.03 570.856C1261.09 567.094 1273.1 572.968 1281.92 564.723C1285.03 567.739 1287.53 571.099 1288.78 574.888C1289.75 573.814 1291.68 571.619 1292.69 570.507C1301.67 572.364 1310.42 574.289 1317.59 578.168C1316.73 576.403 1315.09 572.878 1314.28 571.075L1324.62 569.98C1324.43 571.639 1324.13 574.978 1323.95 576.668C1325.72 575.767 1329.21 573.958 1330.98 573.026C1333.17 575.275 1335.27 577.646 1337.45 579.976C1337.68 576.93 1337.85 573.987 1338.01 571.095C1322.87 569.263 1308.81 565.571 1293.31 564.469C1293.69 563.234 1294.43 560.753 1294.79 559.506C1292.47 560.335 1287.9 561.982 1285.62 562.803C1285.07 555.943 1284.21 549.178 1282.54 542.571C1281.06 548.254 1281.1 553.829 1281.59 559.398C1277.59 558.4 1269.55 556.428 1265.53 555.435L1272.42 553.603C1273.47 548.769 1274.45 544.024 1274.19 539.345C1271.64 541.04 1266.5 544.468 1263.91 546.17C1263.6 543.772 1262.94 538.919 1262.63 536.506C1259.49 537.446 1253.17 539.315 1250.02 540.256C1249.78 538.005 1249.21 533.499 1248.92 531.255C1254.73 528.79 1260.06 526.196 1265.2 523.269C1266.24 525.069 1268.33 528.666 1269.38 530.462L1276.79 526.371C1273.73 518.817 1268.14 512.076 1264.47 504.743C1264.46 506.014 1264.46 508.522 1264.47 509.759C1261.84 509.053 1256.54 507.691 1253.91 507.001C1252.88 507.489 1250.85 508.493 1249.87 508.973C1245.91 504.74 1243.22 498.729 1233.23 499.911C1230.38 497.262 1227.58 494.606 1224.84 491.989C1223.25 492.502 1220.1 493.488 1218.51 494.001C1219.71 487.843 1214.84 481.76 1203.75 485.417C1203.77 484.019 1203.71 481.237 1203.71 479.842C1200.77 480.672 1194.85 482.386 1191.94 483.227C1192 481.509 1192.06 478.146 1192.12 476.428C1190.15 477.155 1186.18 478.615 1184.19 479.33C1182.71 477.96 1179.68 475.183 1178.15 473.804C1178.95 471.863 1180.47 467.975 1181.24 466.021C1184.54 468.568 1188.67 469.67 1193.9 466.794C1193.73 467.76 1193.37 469.681 1193.26 470.624C1205.16 470.777 1219.24 468.601 1229.08 472.396C1231.33 475.67 1229.12 478.206 1222.47 479.97L1223.15 480.57C1226.05 479.59 1231.82 477.679 1234.72 476.699C1236.29 477.554 1239.42 479.249 1240.97 480.092C1239.44 478.039 1238.44 475.888 1238 473.667C1239.16 472.972 1241.42 471.588 1242.57 470.892C1263.09 472.896 1286.59 468.122 1305.94 470.683C1314.86 468.021 1324.53 469.38 1332.98 466.334C1332.81 465.247 1332.41 463.13 1332.2 462.081C1338.33 462.607 1344.55 462.933 1350.65 463.386C1348.61 463.623 1344.45 464.092 1342.41 464.314C1340.79 466.179 1337.6 469.885 1336.03 471.711C1360.42 468.398 1383.82 475.131 1407.78 467.416C1408.25 468.081 1409.21 469.407 1409.67 470.087C1419.18 468.807 1429.55 468.397 1436.71 462.776C1438.6 463.894 1442.34 466.092 1444.21 467.215C1461.22 456.843 1483.49 452.148 1502.45 443.231C1499.59 437.716 1492.8 442.527 1488.31 445.352C1481.53 444.989 1473.6 446.496 1467.89 443.992C1472.84 443.322 1477.72 442.771 1482.62 442.328C1482.41 438.613 1482.18 434.933 1481.89 431.341C1487.76 430.31 1493.64 429.355 1499.44 428.458C1500.33 426.91 1502.16 423.79 1503.05 422.242C1488.29 425.023 1473.19 425.787 1459.02 424.26L1460.62 427.808C1456.32 425.415 1452.04 422.987 1447.39 420.915C1447.67 422.392 1448.27 425.358 1448.55 426.865C1444.53 424.273 1438.9 423.183 1433.19 422.497C1437.78 422.133 1442.29 421.311 1446.38 419.581C1450.67 419.625 1455 419.645 1459.22 419.731L1453.88 424.051C1474.51 422.777 1495.21 419.847 1515.86 418.068C1506.01 414.166 1521.25 401.998 1505.32 400.101C1507.21 398.476 1509.13 396.956 1511.04 395.455C1515.44 395.888 1519.82 396.34 1524.18 396.842C1532.25 391.834 1537.53 385.656 1540.26 379.027C1537.76 377.783 1532.84 375.298 1530.39 374.046C1534.66 373.261 1538.91 372.541 1543.12 371.906C1542.28 370.704 1540.66 368.304 1539.85 367.114C1537.01 367.505 1531.38 368.264 1528.54 368.64C1528.06 365.14 1527.49 361.7 1526.9 358.28C1521.42 355.881 1515.97 353.494 1510.45 351.149C1508.09 351.904 1505.67 352.717 1503.26 353.577C1500.65 346.36 1491.75 343.298 1480.87 342.534C1480.34 344.041 1479.27 347.107 1478.73 348.649C1476.83 345.492 1475.14 342.179 1473.21 339.123L1466.48 340.617C1466.9 342.198 1467.79 345.353 1468.21 346.935C1467.33 342.304 1463.84 339.175 1457.84 337.578C1457.66 339.831 1457.41 344.291 1457.26 346.509C1455.81 343.143 1454.42 339.673 1453.01 336.381C1438.08 331.93 1415.01 335.477 1407.66 324.447C1443.51 330.495 1483.31 334.694 1513.54 347.457C1524.23 348.44 1530.89 353.572 1532.12 360.547C1534.41 360.381 1539.05 359.994 1541.39 359.79C1496.25 318.617 1399.89 319.048 1327.7 304.942C1358.01 304.415 1385.78 310.598 1414.41 313.935L1413.08 308.042C1414.82 310.392 1416.55 312.758 1418.18 315.266C1455.71 317.324 1485.97 330.6 1521.43 335.406C1534.31 342.933 1547.64 349.402 1550.38 361.724C1555.58 346.608 1532.18 340.503 1533.91 326.377C1529.98 327.14 1526.1 328.054 1522.14 329.01ZM1459 449.582C1453.2 448.126 1457.18 440.347 1463.77 442.308C1469.78 443.527 1465.64 451.613 1459 449.582ZM1444.25 680.899C1440.39 675.976 1435.18 670.589 1440.2 664.295C1440.95 666.201 1442.4 670.007 1443.13 671.917C1447.67 670.494 1452.18 669.155 1456.71 667.89C1454.49 672.811 1449.42 676.809 1444.25 680.899ZM1430.5 699.984C1428.83 699.976 1425.43 699.922 1423.75 699.914C1426.12 698.357 1430.87 695.194 1433.26 693.633C1429 694.118 1424.74 694.698 1420.45 695.314C1420.38 694.728 1420.23 693.544 1420.14 692.932C1426.39 690.665 1432.55 688.475 1438.83 686.455C1436.32 690.982 1433.41 695.444 1430.5 699.984ZM1360.04 286.183C1355.82 283.871 1362.73 277.458 1367.25 280.319C1372.03 282.653 1364.89 288.725 1360.04 286.183ZM1347.76 284.364C1342.64 282.552 1348.33 276.015 1353.7 277.662C1357.93 279.5 1353.3 286.424 1347.76 284.364ZM1406.59 634.888C1395.93 637.303 1395 630.626 1390.58 627.296C1388.68 630.192 1387.53 633.207 1387.16 636.368C1386.52 633.661 1385.79 631.03 1385.09 628.441C1383.13 629.122 1379.21 630.479 1377.29 631.151C1375.16 628.329 1372.99 625.499 1370.79 622.765C1368.9 624.108 1365.13 626.791 1363.26 628.13C1361.44 625.448 1359.58 622.804 1357.7 620.241C1356.07 621.763 1352.86 624.845 1351.28 626.359C1348.85 623.693 1346.41 621.012 1343.94 618.431C1333.22 615.98 1321.78 613.106 1309.22 616.645C1308.44 615.747 1306.84 613.987 1306.03 613.093C1299.69 613.148 1293.44 612.953 1287.16 612.873L1286.44 609.441C1283.6 610.271 1277.95 611.943 1275.14 612.755C1274.72 611.204 1273.94 608.064 1273.54 606.479C1268.08 608.264 1262.68 609.991 1257.17 611.861C1257.39 608.456 1257.79 605.133 1258.28 601.876C1277 599.846 1291.55 609.107 1309.81 606.412C1312.57 607.835 1315.29 609.296 1317.99 610.838C1320.28 610.391 1324.84 609.53 1327.13 609.098C1346.76 616.711 1374.39 616.88 1395.26 624.175C1402.77 625.381 1403.39 631.04 1406.59 634.888ZM1414.37 699.434C1403.66 699.568 1392.76 700.53 1381.97 700.803C1382.07 699.235 1382.27 696.1 1382.35 694.567C1384.36 695.432 1388.39 697.146 1390.43 698.023C1399.06 696.218 1408.59 695.138 1414.37 699.434ZM1341.85 282.799C1336.39 284.334 1324.82 284.379 1324.55 280.001C1330.05 278.336 1341.36 278.675 1341.85 282.799ZM1326.29 275.263C1322.89 277.875 1319.41 280.528 1315.92 283.262C1314.48 280.239 1313.09 277.193 1311.69 274.243C1316.57 274.539 1321.45 274.851 1326.29 275.263ZM1308.42 280.58C1296.87 280.341 1285.92 278.755 1275.12 276.959C1276.13 275.361 1278.05 272.181 1279.05 270.583C1287.18 272.432 1293.91 275.688 1299.81 279.557C1300.68 277.824 1302.4 274.391 1303.27 272.674C1304.57 274.637 1307.12 278.601 1308.42 280.58ZM1380.37 696.534C1370.39 700.883 1359.82 698.814 1349.5 699.359C1348.12 698.239 1345.49 695.98 1344.11 694.86C1342.05 695.791 1337.97 697.675 1335.91 698.605C1335.74 697.078 1335.41 694.041 1335.24 692.499C1339.58 692.817 1343.88 693.157 1348.16 693.562C1349.42 694.354 1352 695.915 1353.27 696.691C1362.64 694.617 1371.86 695.011 1380.37 696.534ZM1358.37 715.939C1355.75 719.479 1353 719.809 1350.03 716.898C1352.71 713.27 1355.48 712.967 1358.37 715.939ZM1343.7 720.901C1347.85 718.316 1354.56 719.176 1357.77 721.064C1357.09 725.229 1342.42 725.206 1343.7 720.901ZM1251.12 274.881C1249.11 273.608 1247.09 272.385 1245 271.266C1241.93 274.749 1237.13 276.73 1230.54 277.245C1217.28 273.226 1200.35 275.951 1187.27 271.717C1163 272.407 1139.37 269.63 1116.67 266.521C1120.65 265.327 1124.58 264.216 1128.49 263.206C1128.09 262.295 1127.3 260.473 1126.96 259.555C1132.96 259.583 1138.86 259.753 1144.83 259.851C1144.19 261.393 1142.92 264.457 1142.27 265.984C1150.14 265.27 1157.97 263.654 1165.67 261.883L1167.17 257.795C1168.32 260.894 1169.49 263.974 1170.48 267.207C1183.81 261.935 1197.99 264.167 1210.35 266.317C1210.68 267.521 1211.31 269.947 1211.62 271.154C1220.28 266.164 1238.46 264.108 1237.24 273.671C1241.34 271.768 1245.33 269.992 1249.32 268.215C1249.77 269.87 1250.67 273.195 1251.12 274.881ZM1247.94 524.008C1241.81 522.037 1247.81 515.655 1253.02 519.209C1260.01 520.952 1253.31 527.3 1247.94 524.008ZM1259.66 551.246C1254.17 551.671 1251.01 545.465 1257.1 543.787C1262.49 543.301 1266.15 549.632 1259.66 551.246ZM1268.26 582.149C1265.53 586.224 1262.29 586.551 1258.48 583.174C1261.31 579.115 1264.57 578.768 1268.26 582.149ZM1252.09 553.121C1241.77 554.621 1227.65 547.035 1239.96 540.759C1249.67 539.465 1247.3 549.801 1252.09 553.121ZM1253.42 580.992C1248.09 582.882 1245.59 582.061 1245.92 578.545C1251.36 576.498 1253.86 577.304 1253.42 580.992ZM1253.05 601.759C1248.58 603.626 1243.77 605.183 1239.04 606.932C1234.68 601.399 1224.25 601.065 1214.85 602.407C1213.26 601.117 1210.03 598.559 1208.44 597.284C1208.39 601.587 1208.3 605.959 1208.12 610.392C1207.37 606.213 1206.78 601.991 1206.09 597.912C1199.81 597.393 1193.53 596.874 1187.24 596.294C1185.72 596.826 1182.71 597.871 1181.27 598.376C1180.18 597.227 1178.09 594.933 1177.05 593.776C1173 593.399 1168.9 593.09 1164.79 592.832C1164 591.418 1162.44 588.649 1161.68 587.262C1190.76 593.336 1222.37 595.524 1253.04 599.409C1253 599.979 1253.03 601.166 1253.05 601.759ZM1201.05 295.941C1180.89 295.198 1161.02 293.344 1141.32 291.401C1161.9 290.747 1182.33 292.373 1201.05 295.941ZM1242.84 578.018C1223.92 576.504 1207.79 570.984 1188.83 569.727C1188.31 568.584 1187.29 566.233 1186.77 565.044C1191.47 566.669 1196.47 568.014 1201.76 568.921C1215.91 571.234 1230.69 573.091 1242.84 578.018ZM1210.03 725.447C1209.81 721.358 1219.73 721.925 1220.38 724.945C1220.75 728.98 1210.9 728.213 1210.03 725.447ZM1113.62 266.992C1100.91 266.901 1088.29 266.31 1076.62 263.974C1080.27 261.545 1083.93 259.178 1087.48 256.81C1092.57 256.51 1097.66 256.226 1102.72 255.992C1102.26 257.835 1101.38 261.468 1100.94 263.307C1102.83 261.964 1106.65 259.274 1108.55 257.93C1114.21 257.934 1119.84 257.957 1125.46 258.045C1121.56 261.032 1117.62 263.945 1113.62 266.992ZM1173.78 537.892C1162.11 537.625 1151.6 534.952 1142.81 530.838C1154.26 531.343 1164.87 533.844 1173.78 537.892ZM1159.37 588.873C1155.04 589.604 1146.46 591.085 1142.14 591.847C1140.01 589.198 1136.8 587.499 1132.52 586.67C1132.46 588.075 1132.39 590.907 1132.35 592.34L1131.05 593.058C1129.57 590.246 1128.06 587.485 1126.56 584.754C1104.75 589.046 1087.24 579.587 1066.17 579.156C1064.76 580.158 1061.85 582.159 1060.41 583.166C1059.18 580.895 1057.89 578.758 1056.58 576.656C1078.41 578.959 1101 579.421 1122.59 582.215C1135.61 583.182 1148.76 584.381 1159.37 588.873ZM1098.2 288.624C1071.71 288.279 1045.75 286.489 1019.61 285.259C1018.43 284.61 1016.1 283.293 1014.94 282.625C1042.93 282.707 1070.07 285.147 1097.47 286.872L1098.2 288.624ZM1075.37 258.571C1071.62 258.272 1067.81 258.046 1063.94 257.812C1064.89 259.061 1066.76 261.532 1067.68 262.784C1062.22 263.016 1056.6 263.398 1051.01 263.776C1049.32 263.19 1045.87 262.045 1044.19 261.459C1028.12 263.329 1013.18 260.982 998.653 258.678C987.053 259.044 970.482 262.12 964.75 254.446C968.186 253.006 975.062 250.157 978.498 248.717C978.849 250.591 979.632 254.389 979.959 256.267C980.78 254.541 982.476 251.128 983.297 249.402C987.783 249.697 992.25 250.042 996.675 250.456C994.8 251.764 991.123 254.386 989.296 255.687C991.608 256.13 996.279 256.991 998.588 257.403C999.544 255.562 1001.43 251.838 1002.36 250.001C1004.34 251.875 1008.26 255.627 1010.19 257.508C1012.27 252.671 1017.26 250.553 1025.15 251.122L1024.46 247.089C1025.36 248.345 1027.17 250.935 1028.07 252.191C1031.21 251.016 1037.52 248.646 1040.67 247.439C1038.78 248.875 1035.03 251.743 1033.19 253.155C1047.18 253.661 1060.95 254.778 1074.87 255.371C1075.04 256.177 1075.26 257.789 1075.37 258.571ZM1104.3 515.247C1106.24 511.515 1108.92 511.1 1112.38 513.921C1110.58 517.538 1107.92 517.98 1104.3 515.247ZM1114.39 522.922C1109.24 523.341 1104.05 523.782 1098.81 524.216C1086.73 516.157 1065.34 517.628 1052.66 510.102C1074.31 512.747 1094.04 518.384 1114.39 522.922ZM1114.89 550.531C1082.84 547.344 1052.18 541.232 1022.23 534.679C1030.06 534.928 1038.97 534.258 1044.54 537.929C1069.04 540.086 1093.36 543.807 1114.89 550.531ZM1049.35 475.387C1051.36 471.706 1054.07 471.303 1057.44 474.201C1055.54 477.786 1052.88 478.182 1049.35 475.387ZM1036.71 472.307C1039.02 468.689 1041.7 468.463 1044.8 471.56C1042.62 475.094 1039.92 475.339 1036.71 472.307ZM1051.91 510.954C1039.37 510.116 1027.35 507.96 1016.82 504.162C1029.42 504.834 1042.18 506.266 1051.91 510.954ZM1012.08 284.573C989.01 283.134 964.477 283.6 942.955 279.4C957.409 279.033 971.45 280.062 985.781 280.153C995.127 280.559 1005.73 280.112 1012.08 284.573ZM1000.58 561.132C981.088 561.132 961.904 559.643 943.603 556.779C963.173 556.155 983.317 556.743 1000.58 561.132ZM926.191 257.627C923.875 257.154 919.197 256.23 916.882 255.757L923.947 250.355C920.768 249.858 914.411 248.88 911.184 248.391C912.468 250.466 915.06 254.612 916.319 256.69C911.562 255.716 906.764 254.812 901.963 253.891C900.387 254.558 897.188 255.914 895.636 256.577C888.964 255.868 882.065 255.115 876.872 252.39C882.616 251.581 888.127 251.341 893.712 251.105C893.418 249.991 892.809 247.78 892.491 246.669C902.982 248.325 914.622 247.421 925.749 246.784C925.965 250.356 926.133 253.936 926.191 257.627ZM888.063 277.218C892.519 275.197 899.039 275.413 902.332 277.412C902.214 281.977 887.003 281.269 888.063 277.218ZM890.354 247.611C886.899 248.427 879.99 250.058 876.535 250.874C875.841 252.188 874.52 254.744 873.871 256.02C872.839 251.962 870.3 248.529 866.143 245.832C864.782 247.798 862.091 251.788 860.733 253.785C854.661 253.61 848.512 253.87 842.269 254.615C843.011 252.619 843.716 250.723 844.397 248.846C841.464 248.123 835.579 246.728 832.645 246.005C851.991 245.808 872.092 244.647 890.354 247.611ZM886.611 532.802L882.42 533.418C882.269 532.25 882.015 529.922 881.862 528.738C872.151 531.759 862.017 532.932 852.356 531.9C862.367 527.783 873.122 524.852 884.171 524.854C884.778 526.814 886 530.811 886.611 532.802ZM841.886 253.357C833.412 254.18 824.855 254.467 816.6 253.908C818.018 251.792 820.831 247.563 822.201 245.455C823.353 246.547 825.655 248.7 826.831 249.788C832.006 250.76 837.095 251.839 841.886 253.357ZM801.734 253.884C798.717 250.132 810.045 245.232 815.26 245.665C815.92 249.247 807.324 254.149 801.734 253.884ZM791.12 253.814C781.98 257.562 778.453 244.828 788.629 244.714C791.585 246.782 792.773 250.69 791.12 253.814ZM795.18 555.766C772.963 556.94 751.215 555.862 728.991 556.959L729.187 555.141C751.095 555.207 774.702 552.109 795.18 555.766ZM746.375 245.832C744.164 247.224 739.723 250.058 737.491 251.484C737.066 250.061 736.268 247.252 735.846 245.859C733.024 246.389 727.4 247.399 724.602 247.91C725.313 249.023 726.688 251.256 727.401 252.384C720.035 253.208 712.689 253.998 705.191 254.749C707.998 252.497 710.889 250.341 713.689 248.263C711.472 248.919 707.06 250.212 704.841 250.852L702.568 244.431C709.518 244.753 716.228 245.362 722.596 246.668C730.609 245.9 738.584 245.468 746.375 245.832ZM720.146 278.431C625.418 276.523 528.835 283.117 433.83 282.051C531.117 275.365 627.374 277.083 723.777 275.613C722.871 276.333 721.054 277.726 720.146 278.431ZM726.698 291.152C720.872 291.895 714.956 292.699 709.037 293.488C708.143 292.278 706.331 289.877 705.436 288.667C712.561 289.463 719.656 290.217 726.698 291.152ZM703.602 254.163C683.764 251.411 619.068 259.773 611.738 251.656C615.183 251.203 622.047 250.284 625.464 249.803L626.757 247.659C619.994 249.958 614.53 249.501 610.344 246.306C621.502 243.689 631.775 244.705 637.133 250.744C636.67 249.436 635.789 246.766 635.372 245.419C646.778 245.084 658.068 245.033 669.342 245.064C668.718 246.571 667.542 249.559 666.919 251.066C674.402 245.662 683.784 244.589 693.234 245.042C693.145 246.482 692.919 249.386 692.83 250.826C695.296 249.975 700.257 248.299 702.677 247.471C702.908 249.144 703.372 252.506 703.602 254.163ZM691.494 530.55L685.64 531.705C687.398 532.939 690.892 535.425 692.652 536.673C690.096 535.798 685.058 534.053 682.528 533.189C680.364 533.884 676.063 535.285 673.875 535.984C673.222 534.736 671.917 532.241 671.313 530.987C663.768 534.017 655.777 536.334 647.577 538.321C649.014 534.791 650.295 531.411 652.564 528.066C653.243 529.78 654.624 533.204 655.279 534.921C658.13 534.214 663.786 532.823 666.613 532.12C664.804 531.098 661.212 529.067 659.429 528.056C666.32 532.134 677.828 526.626 683.458 531.556C685.313 530.737 689.05 529.125 690.933 528.332L691.494 530.55ZM612.707 255.363C606.086 253.768 589.04 258.36 589.929 251.827C594.284 250.464 598.644 250.732 602.872 250.69C602.523 249.741 601.852 247.869 601.526 246.916C612.485 239.752 611.144 251.403 612.707 255.363ZM596.051 247.025C593.731 247.869 589.119 249.585 586.777 250.448C585.651 251.861 583.423 254.682 582.273 256.098C553.947 257.212 525.68 257.737 497.805 256.885L495.975 257.936C494.712 261.705 498.551 263.965 501.731 266.28C498.304 265.54 494.807 264.841 491.267 264.197C492.212 262.248 492.477 260.389 492.045 258.684C480.352 255.473 466.611 259.007 453.902 258.681L453.661 252.62C462.264 253.658 471.002 254.582 479.48 255.827C478.618 254.017 476.849 250.418 475.939 248.614C487.269 248.479 498.51 248.436 509.499 249.247C505.611 250.6 497.836 253.322 493.971 254.671C503.052 255.808 511.06 251.373 518.46 247.69C534.254 244.937 556.737 251.639 567.958 240.782C568.772 242.835 569.567 244.939 570.317 247.08C578.447 247.392 589.584 244.136 596.051 247.025ZM643.885 537.637C638.88 538.003 633.79 538.491 628.669 538.921C627.883 536.895 626.284 532.831 625.522 530.801C629.354 533 632.196 539.443 639.596 535.305C638.95 533.665 637.675 530.319 637.053 528.675C640.331 531.21 642.177 534.374 643.885 537.637ZM613.688 538.743C609.901 536.051 618.925 532.368 622.555 533.611C626.325 536.148 617.445 540.248 613.688 538.743ZM609.015 562.744C609.285 559.113 611.928 558.078 616.92 559.627C616.736 563.135 614.092 564.171 609.015 562.744ZM608.606 539.073C603.213 539.044 597.697 539.237 592.171 539.558L593.681 540.767C588.01 540.216 582.123 541.517 576.298 542.715C576.307 540.989 576.275 537.53 576.234 535.796C582.97 535.053 589.549 534.46 596.197 533.81L596.503 538.434C600.295 536.422 604.015 534.421 607.641 532.465C607.872 534.138 608.378 537.431 608.606 539.073ZM571.668 542.004L567.444 542.311C566.168 540.987 563.569 538.363 562.272 537.074C561.494 538.511 559.912 541.389 559.135 542.842C555.002 541.27 550.224 539.421 545.06 542.398C534.708 546.991 522.498 545.6 512.028 549.789C511.738 552.326 513.006 554.482 515.784 556.263C513.201 555.141 509.79 554.555 507.323 553.588C507.028 552.458 506.363 550.193 506.064 549.032C493.668 548.862 481.052 550.748 468.496 552.499C467.624 549.467 466.857 546.482 466.26 543.485C470.322 543.955 473.861 545.039 476.758 546.787C480.035 545.92 486.66 544.16 489.938 543.308C495.27 546.169 506.787 546.851 509.586 540.462C512.146 540.474 517.29 540.479 519.899 540.484C520.061 539.032 520.456 536.102 520.663 534.612C522.192 537.809 523.629 541.068 524.973 544.372C536.586 535.759 553.275 538.511 567.416 535.496C568.454 537.123 570.579 540.369 571.668 542.004ZM532.178 568.075C448.999 578.446 365.265 584.168 282.456 601.112C284.851 597.795 289.264 595.828 294.455 595.591C368.756 582.108 443.501 575.862 518.016 567.958C522.824 567.372 527.638 567.507 532.178 568.075ZM450.472 257.909C439.779 257.335 428.479 259.331 417.748 258.637C418.502 256.969 419.767 254.343 420.448 252.686C415.277 256.056 410.003 259.143 403.829 261.884C402.903 250.207 422.295 250.441 434.203 249.966C433.403 248.271 431.778 244.869 430.979 243.174C432.709 245.509 434.436 247.813 436.007 250.267C438.976 250.185 444.939 250.032 447.908 249.95C448.784 252.573 449.662 255.213 450.472 257.909ZM504.435 587.206L503.571 587.638C499.369 586.108 490.555 587.657 489.508 583.915C493.734 581.366 497.974 580.977 502.253 582.762C502.792 583.87 503.894 586.083 504.435 587.206ZM432.328 281.139C412.032 283.678 391.58 285.912 372.046 283.928C370.832 284.523 368.504 285.745 367.292 286.371C318.225 285.249 267.165 291.38 217.659 292.332C245.415 286.666 272.985 288.553 300.761 285.328C344.588 283.968 388.63 281.649 432.328 281.139ZM465.683 553.561C454.425 553.904 442.105 556.246 431.691 553.936C424.58 559.376 413.563 559.447 404.301 561.395C405.748 557.958 407.078 554.57 408.362 551.221C420.129 549.451 431.699 549.717 443.13 549.833C444.709 549.197 447.91 547.856 449.514 547.216C451.436 549.506 454.103 551.399 457.414 552.878C456.604 551.091 454.98 547.47 454.169 545.667C461.884 545.557 465.064 548.781 465.683 553.561ZM410.325 251.475C407.442 252.343 401.769 254.035 398.934 254.896C400.226 256.139 402.889 258.675 404.231 259.925C392.545 260.633 380.882 261.321 369.182 262.125C370.13 258.624 370.981 255.137 371.739 251.697C384.571 251.8 397.489 251.56 410.325 251.475ZM410.038 567.078C410.478 563.436 413.189 562.343 418.126 563.838C417.8 567.4 415.065 568.496 410.038 567.078ZM364.931 259.693C360.59 262.543 357.688 262.333 356.275 259.071C360.698 256.067 363.598 256.262 364.931 259.693ZM401.794 567.301C397.525 568.101 393.167 568.978 388.839 569.913C388.624 569.069 388.197 567.41 387.96 566.585C390.065 566.933 394.249 567.62 396.353 567.953C397.655 566.357 400.188 563.175 401.443 561.586C383.735 565.074 365.578 564.884 348.007 569.401L347.251 570.818C350.18 576.48 363.422 570.171 370.683 570.413C370.688 571.133 370.668 572.532 370.624 573.26C362.502 573.479 354.434 573.738 346.221 574.019L345.103 578.22C342.442 575.245 340.767 571.836 336.374 569.912C310.42 576.084 283.922 579.299 257.523 582.295C260.815 579.748 264.085 577.236 267.31 574.763C279.103 573.004 290.911 571.165 302.64 569.494C303.441 567.129 304.172 564.805 304.864 562.567C307.808 563.617 310.686 564.74 313.523 565.932C316.407 565.299 322.096 563.981 324.977 563.316C325.976 560.967 326.906 558.66 327.772 556.442C335.191 558.588 342.602 560.657 351.626 559.686C351.27 558.221 350.583 555.301 350.223 553.805C351.806 555.238 354.944 558.061 356.523 559.463C364.335 557.755 372.069 556.231 379.816 554.611C381.324 556.934 382.812 559.306 384.301 561.678C383.882 559.862 383.039 556.183 382.569 554.358C385.731 554.011 391.981 553.328 395.119 553C394.94 554.971 394.606 558.911 394.401 560.871C396.837 557.03 398.701 552.901 405.047 551.059C404.179 556.429 402.947 561.84 401.794 567.301ZM267.863 260.922C271.27 261.477 278.086 262.603 281.494 263.174C281.461 263.775 281.461 264.904 281.426 265.489C273.881 264.444 266.017 264.091 258.012 264.246L257.503 263.87C260.333 263.417 265.893 262.496 268.673 262.035C266.6 260.85 262.45 258.45 260.4 257.246C272.247 257.564 284.336 256.951 296.436 255.521C287.795 259.787 277.381 259.295 267.863 260.922ZM313.822 579.086C311.07 583.195 307.64 583.787 303.515 580.929C306.383 576.755 309.835 576.143 313.822 579.086ZM252.982 263.926C253.819 267.778 243.578 267.291 241.904 265.025C241.063 260.907 251.499 261.38 252.982 263.926ZM286.677 487.007C272.831 486.857 258.83 487.546 244.689 489.432C244.729 488.673 244.808 487.141 244.849 486.382C258.983 485.782 273.698 484.199 286.677 487.007ZM233.957 261.189C233.405 263.579 232.785 266.026 232.095 268.5C231.412 266.52 230.07 262.558 229.387 260.578C225.116 261.128 216.527 262.251 212.207 262.808L212.825 267.353C215.72 266.593 221.464 265.11 224.385 264.361C224.045 265.307 223.41 267.161 223.07 268.107C212.694 267.734 201.952 269.425 191.523 269.248C205.501 259.298 228.105 259.647 245.816 258.683C242.834 259.316 236.915 260.56 233.957 261.189ZM297.721 582.184C294.905 585.707 291.951 586.148 288.837 583.541C291.692 579.917 294.618 579.45 297.721 582.184ZM237.744 618.992C228.869 621.1 219.924 623.03 210.848 624.651C218.601 619.911 228.596 617.458 237.744 618.992ZM255.659 758.774C243.479 762.631 230.612 763.333 218.472 762.355C230.892 760.703 243.333 759.471 255.659 758.774ZM219.856 628.731C220.068 625.03 222.655 623.925 227.593 625.435C227.488 628.995 224.902 630.1 219.856 628.731ZM149.742 267.017C144.874 268.192 139.993 269.463 135.028 270.873C138.964 270.186 146.813 268.817 150.749 268.131L153.554 273.326C148.547 274.13 138.491 275.793 133.485 276.598C132.072 274.465 130.593 272.404 129.143 270.386C129.275 272.279 129.592 276.102 129.722 277.978C127.1 277.85 121.829 277.583 119.183 277.459C118.577 276.188 117.293 273.659 116.639 272.396C116.755 273.695 116.991 276.308 117.107 277.607C102.703 279.111 88.3003 281.084 73.9357 283.632C73.6273 281.25 73.1039 276.439 72.8181 274.038C85.1141 272.155 97.3842 270.259 109.649 268.992C108.256 270.665 105.446 274.015 104.005 275.696C105.779 274.136 109.328 271.017 111.078 269.461C123.785 267.514 136.476 265.867 149.15 264.286L149.742 267.017ZM205.207 615.552C185.544 622.555 164.592 627.657 143.554 631.063C155.511 624.482 170.6 622.716 184.18 619.286C190.985 616.918 198.091 615.287 205.207 615.552ZM204.685 624.772C197.257 627.973 190.187 632.655 181.291 632.995C186.363 630.079 191.439 627.43 196.507 624.703C199.331 624.643 202.016 624.667 204.685 624.772ZM138.382 314.595C136.31 311.387 138.131 309.805 143.847 309.863C145.982 312.982 144.161 314.564 138.382 314.595ZM164.285 764.845C156.749 761.62 147.721 760.067 139.218 757.916C147.453 757.835 155.528 758.093 163.56 758.405C163.759 760.004 164.111 763.242 164.285 764.845ZM70.0141 284.003C56.5056 286.277 42.9221 288.767 29.5301 291.886C29.3623 290.344 28.9801 287.284 28.7882 285.746C32.2425 285.604 35.6051 285.524 38.8984 285.485C38.4472 284.505 37.5724 282.57 37.1212 281.59C39.5947 281.255 44.5937 280.608 47.0706 280.304C48.107 281.461 50.1571 283.793 51.221 284.977C50.4114 283.19 48.7678 279.618 47.9356 277.85L56.8791 276.139C57.6145 277.923 59.082 281.458 59.8174 283.242C60.1952 281.287 60.8851 277.449 61.2629 275.494L69.2743 274.037C69.4443 276.503 69.8166 281.509 70.0141 284.003ZM22.0403 293.388C14.9172 293.736 7.73558 293.998 0.707326 293.861C7.81631 288.859 16.6637 285.361 25.8363 282.815C24.6155 286.296 23.3496 289.815 22.0403 293.388Z" fill="#752B81"/>
<path d="M1458.02 317.966C1470.53 320.155 1481.86 324.116 1489.52 330.673C1479.81 325.581 1461.57 326.903 1458.02 317.966Z" fill="#752B81"/>
<path d="M1450.76 644.928C1461.81 648.091 1473.09 651.425 1480.65 657.537C1475.21 656.068 1470.01 654.295 1464.62 652.881C1464.64 655.576 1464.7 660.946 1464.67 663.663C1461.91 655.632 1462.5 646.834 1447 645.853C1446.47 644.64 1445.41 642.232 1444.85 641.023C1437.17 639.742 1429.41 638.503 1421.59 637.399C1420.43 636.347 1418.06 634.265 1416.88 633.263C1415.1 634.041 1411.53 635.598 1409.74 636.377C1407.08 633.363 1402.98 630.536 1406.14 626.298C1408.55 627.38 1413.37 629.559 1415.75 630.644C1430.4 627.403 1434.89 639.886 1448.15 640.391C1448.75 641.546 1450.06 643.805 1450.76 644.928Z" fill="#752B81"/>
<path d="M1408.35 603.058C1413.46 604.124 1409.43 610.554 1404.07 609.115C1399.24 607.88 1403.08 601.748 1408.35 603.058Z" fill="#752B81"/>
<path d="M1278.35 528.439C1278.58 532.26 1278.77 536.135 1278.9 540.049C1275.24 539.8 1267.79 539.321 1264.07 539.064C1263.5 533.176 1262.95 527.237 1263 521.368C1264.78 523.795 1268.37 528.625 1270.17 531.049C1272.18 530.413 1276.29 529.114 1278.35 528.439Z" fill="#752B81"/>
<path d="M257.189 564.125C256.719 566.2 255.851 570.355 255.426 572.392C238.267 579.843 218.442 579.601 201.211 587.481C188.914 593.031 162.488 591.978 162.754 604.885C160.373 601.651 162.092 597.939 164.075 594.419C171.403 591.547 178.587 588.48 185.79 585.581C185.457 584.561 184.832 582.469 184.496 581.434C186.036 582.159 189.088 583.596 190.604 584.324C213.165 578.042 234.577 569.53 257.189 564.125Z" fill="#752B81"/>
</svg>
