<svg width="1095" height="1092" viewBox="0 0 1095 1092" fill="none" xmlns="http://www.w3.org/2000/svg">
<path d="M948.718 395.198C939.343 391.479 931.053 384.798 920.693 383.932C920.509 380.081 920.322 376.214 920.055 372.481C913.731 375.289 908.381 371.041 903.377 368.002C889.443 367.11 876.946 359.734 862.787 360.003C863.168 361.856 863.905 365.586 864.286 367.439C863.05 361.029 858.924 355.596 852.097 357.779C851.611 355.318 850.606 350.388 850.146 347.904C851.334 349.692 853.749 353.227 854.937 355.015C856.774 353.167 858.608 351.383 860.451 349.645C860.399 351.38 860.283 354.789 860.225 356.493C862.908 355.7 868.724 357.159 865.528 350.975C873.373 352.332 881.56 357.879 889.437 352.633C888.65 353.488 887.06 355.204 886.273 356.06C889.669 357.649 893.092 359.295 896.022 361.747C896.492 361.282 897.454 360.313 897.921 359.833C908.118 361.796 919.423 366.286 929.605 361.642C926.787 358.522 923.906 355.547 921.111 352.469C920.49 353.167 919.25 354.578 918.649 355.303C899.507 349.724 880.811 338.335 860.368 339.235C859.75 336.109 859.113 333.037 858.513 330.002C857.875 332.919 857.242 335.866 856.561 338.875C855.932 337.918 854.656 335.995 854.038 335.02C848.397 335.137 840.363 337.512 838.486 329.782C836.832 331.325 835.167 332.966 833.462 334.634C832.378 333.757 830.221 332.062 829.139 331.2C828.494 331.777 827.18 332.89 826.535 333.468C823.63 330.293 819.544 329.596 815.588 328.942C814.369 329.456 811.944 330.48 810.725 330.994C810.265 327.362 808.364 325.039 804.532 325.244L804.811 330.805C798.325 325.646 790.126 325.725 782.283 324.765C781.974 326.046 781.405 328.625 781.117 329.931C780.322 328.75 778.691 326.416 777.905 325.28C765.896 328.058 753.382 327.281 741.827 324.055C737.974 324.154 733.439 325.716 730.954 321.516C729.543 321.988 726.732 322.896 725.336 323.363C725.202 322.381 724.944 320.382 724.822 319.381C716.417 324.104 707.126 320.966 698.394 320.349C698.092 317.28 697.368 314.311 694.853 312.572C694.1 314.215 692.63 317.459 691.905 319.093C691.438 318.188 690.54 316.335 690.073 315.429C685.392 316.872 680.578 318.942 675.832 317.059C668.679 314.745 660.355 318.347 653.947 313.58C648.6 314.11 643.158 315.08 637.923 313.714C639.562 311.252 641.184 308.779 642.775 306.378C640.291 308.406 637.801 310.483 635.308 312.625C635.09 304.833 626.352 307.642 621.726 306.824C615.58 305.616 611.065 312.812 605.045 312.238C598.457 311.328 589.689 312.298 587.491 303.861C586.82 305.003 585.477 307.271 584.789 308.402C581.363 306.741 577.653 308.25 574.052 309.011C564.924 309.539 555.401 308.68 546.53 307.13C545.598 307.867 543.672 309.341 542.728 310.097C541.295 307.915 539.87 305.778 538.394 303.687C534.211 304.419 530.005 305.189 525.79 305.834C523.743 303.313 521.667 300.879 519.451 298.579C521.621 302.644 524.117 306.362 526.454 310.349C521.719 309.673 516.99 308.868 512.246 308.067C511.534 306.926 510.103 304.6 509.386 303.43C507.785 303.938 504.55 304.932 502.944 305.41C499.719 301.463 493.397 298.441 489.378 303.539C486.815 302.706 484.384 303.317 482.142 305.342C481.277 304.419 479.523 302.613 478.628 301.699C476.691 303.654 474.703 305.656 472.712 307.722C472.07 305.702 470.757 301.671 470.115 299.651C469.589 302.059 469.063 304.546 468.485 307.08C462.026 305.975 455.448 304.728 450.051 300.78L452.96 305.817C447.974 305.482 442.85 304.914 438.644 302.068C439.021 303.668 439.343 305.299 439.64 307.032C440.753 307.822 442.969 309.357 444.082 310.147C434.349 312.532 425.744 310.637 418.081 304.594C418.731 306.5 420.034 310.327 420.69 312.264C418.321 312.03 415.935 311.864 413.543 311.748C411.931 308.277 410.262 304.982 408.538 301.638C409.444 305.225 410.385 308.754 411.292 312.421C401.803 311.584 391.546 314.544 383.505 308.511C380.188 316.393 372.137 313.07 366.029 313.667C365.259 312.384 363.737 309.828 362.952 308.549C360.967 310.645 358.98 312.806 356.987 315.016C351.71 315.207 346.403 315.551 341.086 315.769C339.541 313.331 337.933 310.958 336.265 308.666C336.82 310.551 337.932 314.335 338.487 316.22C327.76 315.265 316.387 319.571 306.157 315.212C303.302 316.133 300.401 317.13 297.495 318.176C296.479 316.722 294.446 313.814 293.401 312.368C292.502 313.812 290.675 316.709 289.77 318.123C288.825 317.334 286.928 315.727 285.977 314.908C284.506 314.998 281.534 315.17 280.032 315.253C279.541 314.306 278.544 312.337 278.054 311.39C270.175 316.78 260.948 318.881 252.064 321.109C248.807 317.841 244.437 316.474 240.234 315.029C237.399 316.82 234.527 318.653 231.6 320.518C229.86 319.089 228.1 317.715 226.303 316.382C222.744 319.425 218.642 321.489 214.455 323.432C213.952 322.345 212.902 320.184 212.399 319.097L207.764 317.39C207.674 319.087 207.478 322.471 207.385 324.153C206.76 322.527 205.527 319.285 204.916 317.655C204.108 319.249 202.517 322.495 201.7 324.123C198.943 322.85 196.319 321.253 193.539 320.019C193.684 321.826 193.944 325.449 194.074 327.261C193.705 326.854 192.976 326.005 192.633 325.575C193.58 317.921 186.46 320.233 183.165 324.843C182.812 322.982 182.066 319.207 181.693 317.32C181.325 320.066 180.989 322.899 180.702 325.75L177.728 326.608C176.352 323.486 174.834 320.722 173.369 317.768C175.557 327.53 165.984 323.658 160.664 324.244C159.993 323.538 158.671 322.073 158.014 321.364C158.13 323.179 158.365 326.826 158.492 328.622C157.423 327.899 155.261 326.413 154.195 325.706C152.98 326.011 150.55 326.623 149.332 326.913C148.595 325.875 147.085 323.842 146.337 322.823C137.173 327.551 127.196 328.315 117.56 331.039C117.272 329.654 116.694 326.883 116.408 325.513C115.579 329.232 114.907 333.209 112.969 336.695C108.707 338.643 105.639 331.722 101.723 334.88C97.2309 337.354 92.6507 339.534 87.7302 340.837C87.3481 337.136 86.8826 333.475 86.2821 329.898C86.1618 333.516 86.2286 337.081 86.2131 340.845C83.6833 340.799 81.1144 340.939 78.5495 341.253L77.7248 342.151C74.602 342.716 71.2631 344.184 68.2701 342.563C56.4457 347.504 43.7115 348.763 31.9557 354.051C31.551 352.618 30.7185 349.711 30.3169 348.294C27.2706 351.704 21.3586 363.589 18.6327 353.944C15.8269 359.263 11.8353 363.653 7.71603 367.935C7.20662 366.356 6.13566 363.165 5.60888 361.576C5.2297 361.808 4.43956 362.267 4.0574 362.484C4.74462 364.348 5.41501 366.281 6.05115 368.27C5.46376 369.294 4.25474 371.397 3.67331 372.451C23.6778 437.41 43.6667 503.059 61.7197 569.054C63.8929 570.139 66.0235 571.315 68.1486 572.541L64.8118 574.328C65.7153 577.055 66.5066 579.83 67.2667 582.677C117.058 590.59 168.246 579.065 218.632 577.16C302.008 571.301 385.429 571.737 467.966 579.379L466.108 575.818C468.437 577.305 470.81 578.637 473.097 580.216C472.816 582.253 472.223 586.321 471.913 588.366C471.046 587.667 469.278 586.326 468.385 585.65C460.234 588.663 451.678 587.551 443.367 590.449C441.537 587.644 439.005 585.974 435.826 585.407C435.976 586.704 436.282 589.326 436.438 590.653C431.479 591.839 427.047 590.776 422.558 588.806C422.6 590.323 422.683 593.358 422.725 594.876C411.833 595.161 400.928 595.148 390.073 597.159C390.18 595.855 390.382 593.266 390.489 591.962C388.336 594.743 386.186 597.618 384.033 600.557C383.607 598.477 382.783 594.31 382.36 592.245C381.749 594.071 380.525 597.788 379.917 599.63C378.128 598.183 374.538 595.31 372.72 593.871C372.815 596.425 373.015 598.823 373.039 601.556C365.82 601.14 358.501 601.675 351.293 600.858C350.695 602.442 349.476 605.647 348.864 607.235C335.965 607.584 323.147 609.344 310.303 611.43L309.454 609.054C305.34 615.437 297.906 615.623 291.634 617.619C290.699 616.653 288.805 614.678 287.856 613.715C257.2 631.325 220.124 633.117 187.952 648.28C188.908 651.886 189.858 655.54 190.788 659.248C192.926 658.463 197.173 656.901 199.276 656.094C200.54 658.419 201.787 660.733 203.023 663.145C200.964 663.637 196.921 664.617 194.868 665.139C194.633 664.026 194.177 661.795 193.941 660.682C189.996 669.838 180.053 672.392 172.709 677.49L172.688 682.147C174.561 681.404 178.289 679.907 180.161 679.163C178.294 680.781 176.376 682.524 174.438 684.241C173.174 682.84 170.643 680.023 169.382 678.637C166.287 682.491 163.128 686.331 159.99 690.277C154.784 692.36 149.539 694.406 144.17 696.28C141.186 700.39 138.28 704.59 135.569 709.006C131.601 710.284 127.611 711.535 123.598 712.666C121.569 714.998 119.562 717.291 117.447 719.727C120.837 719.979 124.176 720.279 127.504 720.597C130.709 716.839 133.863 713.049 136.924 709.252C137.642 710.502 139.1 712.964 139.821 714.229C136.366 717.801 131.373 720.43 130.863 726.147C139.408 721.129 155.702 701.694 162.613 716.149C156.114 718.225 149.596 720.434 143.063 722.567C142.518 724.343 141.367 727.896 140.811 729.691C138.275 720.392 135.063 730.571 132.377 732.193C131.457 730.537 129.659 727.198 128.757 725.553C125.97 727.665 123.167 729.925 120.402 732.222C122.493 731.434 126.622 729.81 128.681 729.014C129.252 731.054 130.424 735.141 130.994 737.181C129.163 737.673 125.475 738.682 123.629 739.178L124.481 741.57C116.649 745.195 109.365 750.292 103.773 757.341C105.04 757.913 107.612 759.094 108.896 759.677C109.621 764.111 110.366 768.65 111.068 773.202C113.212 771.603 115.351 770.054 117.458 768.576C117.672 769.584 118.061 771.626 118.272 772.619C126.628 769.183 135.517 770.059 143.958 766.823C143.919 767.391 143.854 768.524 143.826 769.073C140.673 770.331 137.53 771.714 134.595 773.692C134.787 774.817 135.2 777.06 135.406 778.182C133.772 776.214 132.136 774.311 130.52 772.435C128.134 774.881 125.711 777.45 123.305 780.03C122.701 777.744 122.07 775.546 121.383 773.379C115.963 780.301 109.217 786.427 104.707 793.956C103.618 794.593 101.42 795.84 100.325 796.447C106.127 794.915 111.905 793.422 117.625 791.706C117.08 793.402 116.012 796.837 115.484 798.544C126.279 800.149 137.071 801.819 147.858 803.538C136.791 805.783 126.104 801.186 115.056 801.371C115.589 803.15 116.718 806.708 117.251 808.487C114.2 807.263 111.13 806.093 108.019 804.95C107.708 806.757 107.374 808.602 107.008 810.519C114.463 814.661 121.963 818.726 129.665 822.433C127.627 822.648 123.526 823.103 121.488 823.318C123.731 827.442 127.102 829.596 131.643 829.832C132.267 828.607 133.485 826.166 134.103 824.912C134.937 825.444 136.579 826.454 137.399 826.991L132.381 828.416C136.542 836.18 144.498 839.323 152.686 839.725C152.653 840.865 152.539 843.206 152.497 844.38C192.649 848.854 233.207 840.01 273.389 834.648C274.66 833.164 275.914 831.828 277.115 830.602C280.031 835.83 285.774 830.778 290.082 830.139C294.119 829.05 302.137 831.744 302.251 825.325C302.652 826.202 303.439 827.958 303.84 828.834C352.133 822.175 400.495 814.174 448.859 808.339C449.407 807.422 450.491 805.608 451.013 804.714C452.14 807.268 454.034 808.861 456.715 809.518C457.704 808.144 459.719 805.434 460.723 804.056C472.994 807.752 486.357 805.299 499.179 804.557C498.768 803.556 497.979 801.561 497.569 800.56C500.437 802.089 503.323 803.629 506.171 805.211C506.284 803.858 506.546 801.189 506.672 799.831C510.226 806.363 518.533 802.526 524.373 803.724L522.088 800.615C528.751 805.98 537.389 802.816 545.224 802.583C585.367 800.943 625.657 799.581 665.644 797.84C665.956 797.037 666.614 795.373 666.926 794.569C670.415 798.856 677.582 798.395 680.559 793.172C680.712 794.021 680.994 795.679 681.126 796.503C685.111 796.383 689.091 796.313 693.069 796.387C693.087 795.172 693.111 792.76 693.115 791.548C694.91 791.718 696.688 791.957 698.447 792.249C697.779 793.406 696.456 795.701 695.76 796.866C738.429 790.176 782.629 790.085 824.38 797.81C850.719 796.467 878.3 801.183 905.146 794.953C905.457 793.609 906.094 790.915 906.414 789.536C906.701 790.762 907.298 793.241 907.591 794.497C912.21 792.434 916.801 790.617 921.368 788.6L921.251 791.77C930.931 787.584 941.419 785.946 950.576 780.264C950.029 779.11 948.959 776.843 948.415 775.704C937.279 778.367 925.53 781.152 914.907 776.807C914.763 776.385 914.486 775.523 914.354 775.081C921.235 772.788 927.687 769.324 934.166 765.995C933.553 767.503 932.384 770.504 931.803 772.019C934.619 772.129 940.288 772.307 943.097 772.386C942.663 770.803 941.751 767.647 941.282 766.041C943.012 765.577 946.473 764.647 948.197 764.153C947.837 762.946 947.155 760.492 946.792 759.27C948.741 758.761 952.637 757.727 954.586 757.217C951.21 756.116 947.788 755.091 944.378 754.127C951.615 752.404 958.74 750.345 965.942 748.6C964.465 748.118 961.565 747.123 960.103 746.637C960.857 740.232 967.522 738.078 971.346 741.906C971.172 740.489 970.764 737.655 970.562 736.246C978.651 735.305 986.679 735.895 994.375 738.106C993.774 727.919 984.916 734.043 978.813 735.276L978.062 730.404C972.798 734.191 967.242 737.503 961.107 739.35C959.906 743.873 955.732 743.344 952.331 743.348C952.821 739.374 953.978 735.548 955.318 731.879C956.602 732.764 959.18 734.517 960.464 735.403C961.544 728.652 962.63 720.928 956.475 717.062C952.922 718.368 950.194 716.242 947.847 713.82C947.286 714.9 946.184 717.085 945.626 718.18C944.405 714.537 943.144 710.921 941.846 707.427C939.757 708.612 937.648 709.851 935.517 711.128C935.488 708.603 935.446 706.162 935.367 703.763C933.741 703.068 930.502 701.658 928.873 700.947C929.121 702.583 929.636 705.881 929.883 707.516C929.474 707.598 928.616 707.788 928.21 707.885C924.052 694.609 919.544 704.685 913.56 687.233C925.065 691.205 936.613 695.086 947.642 700.258C910.614 674.48 862.908 671.197 820.529 659.76C796.145 654.012 770.486 649.957 746.107 643.157C717.298 635.533 685.515 637.065 657.573 627.99C693.164 631.819 729.239 634.638 763.814 643.703C765.109 643.184 766.386 642.734 767.636 642.371C771.279 644.592 775.317 645.971 779.397 647.18C780.101 646.745 781.515 645.907 782.253 645.494C786.795 648.884 792.203 651.89 797.942 648.735C811.661 655.995 828.097 654.488 842.116 660.884L841.59 656.299C843.605 658.352 845.603 660.473 847.611 662.639C848.619 661.977 850.646 660.633 851.654 659.971C873.223 670.068 899.493 670.147 921.379 681.079C919.709 675.936 917.845 671.038 916.447 665.883C915.2 668.332 913.916 670.824 912.531 673.343C911.185 669.145 909.871 665.034 907.511 661.468C907.857 663.602 908.52 667.878 908.866 670.012C900.611 668.275 894.032 664.798 890.703 656.325C891.385 658.7 892.711 663.492 893.364 665.875C891.364 664.743 887.323 662.504 885.322 661.371C883.619 661.51 880.18 661.78 878.476 661.919C878.567 660.46 878.776 657.519 878.856 656.079C877.865 656.832 875.9 658.334 874.91 659.087C858.259 656.894 843.448 651.18 828.484 645.381C827.295 643.592 826.064 641.896 824.824 640.233C813.138 640.803 804.105 631.668 792.843 630.925C792.575 629.646 792.016 627.045 791.742 625.736C800.944 630.348 801.144 626.517 798.945 617.698C799.756 618.572 800.549 619.514 801.315 620.544C801.14 624.272 801.007 628.053 800.865 631.867C804.208 630.652 807.558 629.546 810.885 628.479C811.206 630.412 811.866 634.211 812.187 636.145C818.505 632.304 826.626 637.901 831.002 629.693C833.294 632.608 835.259 635.869 836.507 639.568C836.964 638.502 837.87 636.323 838.35 635.218C844.107 636.916 849.725 638.685 854.618 642.391C853.869 640.672 852.415 637.237 851.688 635.479L857.902 634.263C857.996 635.894 858.234 639.172 858.334 640.833C859.309 639.925 861.227 638.102 862.195 637.164C863.825 639.34 865.418 641.637 867.048 643.892C866.806 640.901 866.539 638.013 866.266 635.173C856.735 633.584 847.63 630.155 837.968 629.287C838.046 628.071 838.186 625.627 838.247 624.399C836.926 625.244 834.326 626.921 833.034 627.758C831.827 621.037 830.442 614.413 828.574 607.955C828.389 613.55 829.12 619.017 830.122 624.473C827.541 623.55 822.351 621.726 819.755 620.806L823.755 618.915C823.787 614.159 823.791 609.491 823.036 604.906C821.686 606.603 818.963 610.036 817.584 611.741C817.09 609.393 816.075 604.642 815.578 602.279C813.764 603.245 810.12 605.165 808.306 606.13C807.87 603.926 806.953 599.514 806.488 597.317C809.745 594.82 812.69 592.202 815.48 589.261C816.342 591.012 818.082 594.511 818.959 596.259L822.989 592.145C820.152 584.777 815.869 578.242 812.681 571.099C812.836 572.346 813.155 574.806 813.319 576.019C811.61 575.363 808.187 574.099 806.481 573.458C805.91 573.951 804.789 574.963 804.247 575.448C801.281 571.35 798.863 565.491 792.878 566.787C790.793 564.228 788.737 561.662 786.718 559.132C785.805 559.657 784 560.668 783.086 561.192C783.043 555.135 779.281 549.235 772.929 552.975C772.764 551.603 772.377 548.875 772.197 547.508C770.498 548.362 767.081 550.123 765.399 550.989C765.218 549.303 764.824 546.003 764.643 544.318C763.528 545.057 761.271 546.544 760.14 547.273C759.058 545.948 756.843 543.266 755.729 541.935C755.973 540.02 756.415 536.185 756.642 534.259C758.994 536.712 761.672 537.736 764.517 534.843C764.537 535.793 764.561 537.682 764.608 538.609C771.939 538.595 780.317 536.269 786.842 539.856C788.64 543.036 787.604 545.554 783.742 547.375L784.236 547.955C785.891 546.954 789.195 545 790.85 543.999C791.922 544.816 794.064 546.436 795.119 547.242C793.921 545.249 793.036 543.153 792.485 540.981C793.106 540.282 794.32 538.894 794.941 538.196C807.802 539.88 821.633 534.876 833.846 537.123C838.985 534.389 845.098 535.59 849.906 532.487C849.665 531.423 849.15 529.352 848.886 528.326C852.722 528.758 856.58 528.992 860.387 529.353C859.163 529.613 856.668 530.13 855.441 530.376C854.684 532.227 853.194 535.906 852.459 537.719C867.026 534.135 882.253 540.418 895.999 532.523C896.37 533.168 897.125 534.456 897.499 535.117C903.177 533.731 909.493 533.187 913.183 527.575C914.488 528.646 917.06 530.751 918.35 531.826C927.485 521.42 940.576 516.51 951.096 507.503C948.638 502.133 945.078 506.945 942.677 509.778C938.465 509.514 933.782 511.101 929.957 508.724C932.911 507.999 935.843 507.391 938.796 506.89C938.198 503.249 937.592 499.642 936.957 496.123C940.431 495.031 943.92 494.014 947.375 493.054C947.725 491.523 948.452 488.439 948.802 486.908C940.088 489.838 930.908 490.795 922.01 489.491L923.438 492.949C920.495 490.66 917.561 488.337 914.439 486.369C914.8 487.814 915.54 490.714 915.908 492.189C913.108 489.702 909.511 488.71 905.916 488.115C908.688 487.696 911.356 486.827 913.652 485.075C916.291 485.058 918.955 485.019 921.557 485.045L918.825 489.356C931.339 487.824 943.682 484.666 956.143 482.639C949.598 478.945 957.417 466.802 947.389 465.159C948.345 463.54 949.336 462.022 950.315 460.524C953.075 460.888 955.823 461.272 958.566 461.705C962.888 456.681 965.351 450.55 966.185 444.01C964.493 442.824 961.154 440.454 959.491 439.259C962.015 438.431 964.536 437.667 967.044 436.986C966.373 435.819 965.077 433.487 964.423 432.33C962.73 432.753 959.37 433.575 957.673 433.982C956.935 430.555 956.149 427.19 955.351 423.844C951.682 421.565 948.03 419.299 944.34 417.074C942.99 417.847 941.605 418.678 940.229 419.554C937.714 412.511 931.86 409.629 925.075 409.029C924.944 410.515 924.675 413.536 924.536 415.056C922.972 411.986 921.514 408.759 919.94 405.788L915.996 407.345C916.453 408.891 917.397 411.974 917.854 413.519C916.731 408.989 914.19 405.967 910.298 404.484C910.477 406.696 910.887 411.074 911.074 413.252C909.758 409.97 908.466 406.586 907.179 403.375C897.443 399.214 883.722 403.009 877.808 392.291C900.597 397.733 925.584 401.306 945.773 413.411C952.464 414.228 957.206 419.171 958.844 425.995C960.233 425.801 963.03 425.358 964.442 425.125C931.498 385.359 872.348 387.102 826.214 374.255C844.767 373.322 862.609 379.007 880.626 381.888L879.062 376.126C880.424 378.408 881.789 380.704 883.106 383.142C906.423 384.646 926.696 397.253 949.094 401.481C957.959 408.688 966.967 414.851 970.213 426.899C971.491 412.002 956.34 406.334 955.617 392.454C953.3 393.257 951.028 394.207 948.718 395.198ZM925.203 514.329C921.459 512.979 922.917 505.295 927.212 507.129C931.061 508.242 929.542 516.23 925.203 514.329ZM945.451 741.421C942.457 736.645 938.573 731.433 940.862 725.19C941.563 727.05 942.935 730.762 943.622 732.626C946.234 731.168 948.832 729.793 951.46 728.49C950.719 733.347 948.106 737.338 945.451 741.421ZM939.424 760.329C938.394 760.345 936.298 760.338 935.268 760.353C936.524 758.793 939.041 755.625 940.311 754.062C937.759 754.595 935.211 755.224 932.654 755.886C932.541 755.312 932.297 754.154 932.163 753.554C935.715 751.245 939.222 749.012 942.823 746.945C941.854 751.419 940.632 755.837 939.424 760.329ZM843.703 355.412C840.821 353.202 844.252 346.817 847.391 349.561C850.624 351.785 847.007 357.839 843.703 355.412ZM835.928 353.796C832.554 352.089 835.219 345.599 838.728 347.141C841.563 348.886 839.592 355.741 835.928 353.796ZM916.484 696.806C910.239 699.322 908.826 692.785 905.687 689.579C904.887 692.446 904.563 695.419 904.736 698.524C904.001 695.877 903.219 693.307 902.462 690.778C901.338 691.472 899.106 692.856 898.012 693.543C896.347 690.803 894.65 688.057 892.957 685.406C891.962 686.749 889.987 689.432 889.007 690.772C887.55 688.166 886.071 685.598 884.592 683.11C883.783 684.624 882.203 687.692 881.422 689.199C879.591 686.617 877.757 684.02 875.912 681.522C869.012 679.266 861.622 676.603 854.355 680.246C853.758 679.377 852.556 677.672 851.944 676.806C848.054 676.947 844.192 676.841 840.321 676.849L839.445 673.492C837.807 674.346 834.547 676.063 832.92 676.898C832.469 675.382 831.589 672.313 831.146 670.764C828.015 672.589 824.917 674.358 821.772 676.267C821.475 672.924 821.301 669.66 821.185 666.459C832.433 664.211 842.54 673.095 853.418 670.201C855.296 671.559 857.151 672.955 859.006 674.431C860.356 673.96 863.047 673.054 864.399 672.598C877.423 679.797 894.418 679.584 908.167 686.453C912.936 687.534 914.031 693.076 916.484 696.806ZM929.445 760.011C922.88 760.289 916.308 761.382 909.709 761.797C909.572 760.258 909.298 757.181 909.152 755.676C910.499 756.497 913.189 758.123 914.553 758.954C919.631 757.066 925.348 755.876 929.445 760.011ZM832.102 352.342C828.937 353.922 821.841 354.125 821.114 349.835C824.284 348.126 831.274 348.303 832.102 352.342ZM821.588 345.164C819.826 347.772 818.026 350.422 816.227 353.151C814.962 350.206 813.722 347.237 812.486 344.363C815.522 344.587 818.56 344.826 821.588 345.164ZM811.279 350.624C804.157 350.547 797.228 349.142 790.365 347.528C790.781 345.947 791.556 342.801 791.973 341.22C797.199 342.922 801.745 346.024 805.865 349.738C806.179 348.026 806.8 344.636 807.118 342.939C808.163 344.847 810.23 348.701 811.279 350.624ZM908.187 757.632C902.604 762.034 895.854 760.15 889.579 760.826C888.591 759.746 886.688 757.567 885.7 756.487C884.55 757.428 882.284 759.332 881.133 760.272C880.838 758.777 880.25 755.803 879.952 754.293C882.659 754.544 885.34 754.819 888.019 755.158C888.898 755.918 890.681 757.413 891.557 758.158C897.052 755.994 902.767 756.255 908.187 757.632ZM897.127 776.967C895.968 780.475 894.323 780.836 892.127 778.022C893.315 774.426 894.979 774.091 897.127 776.967ZM888.744 782.035C890.965 779.443 895.199 780.195 897.408 782.002C897.519 786.097 888.504 786.275 888.744 782.035ZM775.358 345.819C773.963 344.597 772.562 343.425 771.136 342.356C769.694 345.815 766.993 347.823 763.011 348.42C754.356 344.659 744.301 347.564 735.726 343.59C720.907 344.6 706.038 342.199 691.694 339.461C693.987 338.235 696.267 337.092 698.536 336.047C698.178 335.159 697.462 333.383 697.133 332.487C700.828 332.432 704.474 332.519 708.152 332.533C707.951 334.054 707.561 337.077 707.358 338.583C712.103 337.775 716.704 336.083 721.214 334.24L721.617 330.21C722.716 333.234 723.826 336.239 724.845 339.396C732.366 334.042 741.355 336.037 749.224 337.977C749.578 339.153 750.275 341.524 750.614 342.704C755.302 337.69 766.213 335.425 766.673 344.822C768.95 342.899 771.177 341.102 773.403 339.305C773.89 340.922 774.866 344.171 775.358 345.819ZM804.965 590.222C800.955 588.373 803.832 582.031 807.483 585.445C811.993 587.059 808.686 593.377 804.965 590.222ZM815.619 616.778C812.299 617.27 809.571 611.227 813.102 609.497C816.348 608.946 819.403 615.106 815.619 616.778ZM824.82 646.972C823.658 651.006 821.711 651.371 818.941 648.111C820.166 644.091 822.125 643.706 824.82 646.972ZM811.204 618.721C805.054 620.334 795.422 613.086 802.19 606.762C807.987 605.359 807.84 615.53 811.204 618.721ZM815.555 646.041C812.519 647.967 810.879 647.196 810.637 643.743C813.718 641.661 815.355 642.417 815.555 646.041ZM817.957 666.415C815.446 668.307 812.693 669.9 810.008 671.681C806.624 666.314 800.18 666.128 794.573 667.574C793.432 666.33 791.122 663.865 789.984 662.637C790.499 666.858 790.998 671.148 791.447 675.499C790.457 671.409 789.564 667.277 788.624 663.285C784.698 662.862 780.773 662.439 776.836 661.956C775.971 662.499 774.253 663.565 773.429 664.081C772.617 662.968 771.039 660.747 770.256 659.626C767.719 659.311 765.164 659.065 762.605 658.868C761.938 657.492 760.631 654.797 759.985 653.447C778.622 659.007 798.321 660.719 817.653 664.11C817.703 664.67 817.872 665.834 817.957 666.415ZM747.263 367.161C734.783 366.709 722.344 365.162 709.995 363.527C722.552 362.604 735.309 363.919 747.263 367.161ZM808.675 643.269C796.862 642.042 786.254 636.849 774.445 635.876C773.982 634.762 773.059 632.47 772.587 631.311C775.683 632.84 778.922 634.091 782.287 634.908C791.277 636.983 800.586 638.602 808.675 643.269ZM807.2 788.325C806.544 784.318 812.716 784.738 813.497 787.691C814.233 791.644 808.083 791.027 807.2 788.325ZM689.88 339.965C682.061 340.05 674.237 339.643 666.77 337.511C668.703 335.079 670.649 332.707 672.534 330.335C675.621 329.972 678.71 329.624 681.794 329.324C681.743 331.139 681.66 334.714 681.623 336.524C682.618 335.18 684.622 332.489 685.617 331.146C689.094 331.072 692.561 331.017 696.025 331.027C694.003 334.009 691.951 336.921 689.88 339.965ZM761.163 604.857C753.961 604.755 747.169 602.276 741.248 598.362C748.346 598.7 755.179 601.007 761.163 604.857ZM758.77 655.059C756.205 655.835 751.125 657.406 748.566 658.212C746.919 655.643 744.731 654.021 742 653.266C742.136 654.646 742.458 657.424 742.614 658.83L741.906 659.552C740.636 656.814 739.361 654.126 738.092 651.468C725.241 655.977 713.281 646.939 700.286 646.805C699.543 647.808 698.01 649.81 697.253 650.817C696.208 648.606 695.145 646.528 694.073 644.485C707.777 646.444 721.715 646.587 735.333 649.033C743.457 649.803 751.687 650.798 758.77 655.059ZM683.151 361.394C666.833 361.419 650.657 360.018 634.439 359.17C633.633 358.55 632.033 357.29 631.238 356.651C648.444 356.348 665.425 358.369 682.48 359.685L683.151 361.394ZM665.316 332.229C662.975 331.987 660.603 331.817 658.199 331.641C658.94 332.853 660.401 335.251 661.127 336.466C657.801 336.769 654.397 337.221 651.008 337.668C649.897 337.117 647.635 336.041 646.524 335.489C636.892 337.543 627.412 335.445 618.198 333.385C611.118 333.902 601.327 337.147 596.833 329.698C598.762 328.239 602.625 325.35 604.553 323.891C605.007 325.724 605.969 329.439 606.408 331.276C606.694 329.572 607.303 326.201 607.589 324.497C610.382 324.725 613.17 325.002 615.941 325.347C614.955 326.656 613.028 329.278 612.071 330.579C613.547 330.982 616.526 331.763 617.996 332.135C618.351 330.316 619.036 326.638 619.376 324.823C620.827 326.634 623.715 330.26 625.137 332.079C625.804 327.306 628.599 325.16 633.517 325.61L632.585 321.664C633.297 322.884 634.735 325.399 635.447 326.619C637.23 325.423 640.808 323.012 642.585 321.785C641.608 323.219 639.669 326.084 638.718 327.495C647.373 327.799 655.979 328.705 664.606 329.097C664.807 329.885 665.149 331.463 665.316 332.229ZM715.614 583.596C716.328 579.909 717.925 579.466 720.406 582.185C719.761 585.757 718.183 586.227 715.614 583.596ZM722.784 590.987C719.675 591.468 716.54 591.972 713.373 592.469C704.935 584.73 691.976 586.466 683.232 579.258C696.867 581.555 709.705 586.814 722.784 590.987ZM726.585 618.06C706.496 615.373 686.884 609.798 667.655 603.782C672.496 603.919 677.884 603.139 681.77 606.663C697.094 608.444 712.509 611.76 726.585 618.06ZM676.801 545.253C677.57 541.614 679.185 541.182 681.621 543.978C680.909 547.52 679.322 547.945 676.801 545.253ZM668.646 542.405C669.608 538.824 671.228 538.566 673.52 541.561C672.632 545.057 671.001 545.334 668.646 542.405ZM682.883 580.103C675.071 579.454 667.412 577.503 660.464 573.922C668.289 574.409 676.307 575.638 682.883 580.103ZM629.726 358.6C615.372 357.505 600.359 358.298 586.605 354.473C595.439 353.915 604.195 354.732 613.011 354.625C618.804 354.895 625.264 354.312 629.726 358.6ZM657.702 630.025C645.729 630.292 633.754 629.094 622.148 626.536C634.092 625.656 646.542 625.957 657.702 630.025ZM573.547 333.347C572.064 332.914 569.074 332.072 567.591 331.64L571.247 326.244C569.231 325.801 565.202 324.929 563.157 324.493C564.209 326.511 566.326 330.542 567.364 332.563C564.318 331.673 561.255 330.851 558.189 330.014C557.306 330.69 555.512 332.064 554.643 332.736C550.453 332.131 546.12 331.487 542.584 328.885C546.011 328.013 549.366 327.703 552.767 327.395C552.445 326.306 551.791 324.146 551.455 323.06C558.11 324.541 565.146 323.495 571.902 322.717C572.487 326.218 573.044 329.727 573.547 333.347ZM552.605 353.085C555.086 351.042 559.119 351.164 561.396 353.08C561.902 357.559 552.467 357.073 552.605 353.085ZM550.261 324.013C548.242 324.861 544.204 326.556 542.185 327.403C541.925 328.702 541.437 331.227 541.2 332.487C540.052 328.521 538.057 325.189 535.162 322.6C534.575 324.547 533.427 328.498 532.846 330.475C529.093 330.387 525.348 330.726 521.607 331.542C521.811 329.574 522.003 327.705 522.184 325.854C520.29 325.186 516.498 323.898 514.604 323.229C526.464 322.77 538.666 321.356 550.261 324.013ZM584.096 603.798L581.6 604.46C581.359 603.316 580.908 601.036 580.664 599.877C575.08 602.973 569.003 604.263 562.938 603.383C568.566 599.207 574.802 596.185 581.59 596.036C582.212 597.95 583.469 601.854 584.096 603.798ZM521.213 330.313C516.111 331.237 510.89 331.635 505.748 331.2C506.351 329.105 507.543 324.919 508.118 322.832C508.964 323.887 510.651 325.968 511.511 327.019C514.814 327.901 518.077 328.891 521.213 330.313ZM496.611 331.38C494.283 327.742 500.621 322.78 503.88 323.133C504.74 326.638 500.079 331.564 496.611 331.38ZM490.082 331.457C484.942 335.259 481.162 322.817 487.399 322.566C489.477 324.553 490.702 328.37 490.082 331.457ZM530.835 627.575C517.334 629.031 503.837 628.272 490.322 629.653L490.212 627.867C503.68 627.631 517.79 624.269 530.835 627.575ZM461.581 324.241C460.399 325.637 458.03 328.477 456.84 329.907C456.398 328.516 455.552 325.773 455.116 324.412C453.45 324.971 450.123 326.038 448.468 326.577C449.046 327.659 450.174 329.831 450.755 330.928C446.334 331.837 441.921 332.713 437.41 333.551C438.848 331.304 440.351 329.15 441.809 327.073C440.529 327.747 437.983 329.076 436.701 329.734L434.49 323.467C438.801 323.688 443.001 324.193 447.078 325.386C451.904 324.524 456.749 323.991 461.581 324.241ZM449.598 356.576C391.159 356.002 332.658 363.793 274.156 364.049C333.078 356.158 392.432 356.525 451.471 353.762C451.006 354.48 450.066 355.872 449.598 356.576ZM455.235 368.963C451.75 369.772 448.217 370.642 444.681 371.497C443.978 370.322 442.561 367.992 441.858 366.817C446.336 367.501 450.79 368.143 455.235 368.963ZM436.359 332.999C423.822 330.572 385.136 339.66 379.604 331.799C381.663 331.307 385.763 330.311 387.802 329.793L388.324 327.672C384.461 330.02 381.046 329.646 378.069 326.57C384.593 323.851 391.033 324.706 395.09 330.556C394.64 329.279 393.76 326.672 393.333 325.357C400.299 324.872 407.228 324.668 414.158 324.543C413.966 326.03 413.622 328.977 413.43 330.463C417.343 325.06 422.971 323.879 428.834 324.194C428.961 325.608 429.191 328.459 429.318 329.873C430.726 329.005 433.561 327.293 434.943 326.447C435.297 328.085 436.008 331.376 436.359 332.999ZM463.939 604.263L460.489 605.476C461.726 606.662 464.187 609.052 465.427 610.253C463.746 609.43 460.429 607.787 458.766 606.974C457.524 607.685 455.059 609.119 453.803 609.834C453.245 608.619 452.127 606.19 451.597 604.967C447.345 608.044 442.729 610.425 437.943 612.487C438.379 609.005 438.738 605.672 439.708 602.36C440.342 604.032 441.624 607.371 442.244 609.046C443.906 608.314 447.205 606.872 448.853 606.144C447.612 605.166 445.147 603.223 443.924 602.256C448.674 606.162 455.046 600.601 459.13 605.36C460.166 604.531 462.257 602.898 463.314 602.095L463.939 604.263ZM380.669 335.421C376.399 333.947 366.509 338.685 366.227 332.265C368.73 330.869 371.442 331.071 374.035 330.972C373.7 330.046 373.05 328.219 372.73 327.289C378.555 320.112 379.207 331.559 380.669 335.421ZM369.379 327.471C368.061 328.331 365.445 330.077 364.116 330.956C363.603 332.356 362.592 335.154 362.064 336.559C344.803 338.04 327.504 338.942 310.271 338.488L309.28 339.544C308.981 343.259 311.626 345.423 313.873 347.65C311.674 346.971 309.437 346.334 307.181 345.75C307.514 343.825 307.441 341.998 306.96 340.332C299.369 337.343 291.375 340.997 283.526 340.851L282.61 334.909C288.027 335.81 293.512 336.596 298.879 337.702C298.12 335.938 296.577 332.432 295.789 330.676C302.733 330.388 309.633 330.191 316.488 330.836C314.27 332.217 309.838 334.993 307.635 336.369C313.358 337.36 317.715 332.9 321.795 329.187C331.15 326.27 345.811 332.535 351.329 321.732C352.09 323.735 352.845 325.787 353.576 327.878C358.611 328.072 365.041 324.726 369.379 327.471ZM435.589 611.867C432.56 612.294 429.495 612.842 426.403 613.335C425.663 611.358 424.166 607.393 423.441 605.413C426.074 607.517 428.636 613.798 432.658 609.638C432.053 608.038 430.846 604.774 430.256 603.17C432.591 605.611 434.125 608.689 435.589 611.867ZM417.177 613.365C414.509 610.777 419.587 607.041 421.974 608.21C424.612 610.647 419.675 614.789 417.177 613.365ZM417.347 636.971C417.053 633.405 418.545 632.354 421.808 633.805C422.14 637.249 420.647 638.301 417.347 636.971ZM414.096 613.758C410.78 613.803 407.415 614.069 404.061 614.459L405.141 615.624C401.588 615.162 398.136 616.519 394.709 617.773C394.496 616.08 394.038 612.687 393.793 610.987C397.837 610.167 401.804 609.495 405.806 608.766L406.58 613.298C408.655 611.272 410.686 609.258 412.666 607.29C413.02 608.928 413.748 612.151 414.096 613.758ZM391.774 617.139L389.218 617.498C388.267 616.218 386.338 613.679 385.378 612.433C385.081 613.853 384.474 616.698 384.181 618.133C381.443 616.648 378.273 614.9 375.478 617.89C369.7 622.537 362.022 621.341 356.121 625.592C356.264 628.085 357.316 630.182 359.248 631.891C357.519 630.826 355.35 630.298 353.711 629.383C353.387 628.279 352.691 626.067 352.361 624.932C344.724 624.935 337.212 626.957 329.72 628.847C328.8 625.885 327.95 622.967 327.204 620.037C329.759 620.442 332.07 621.457 334.072 623.131C335.975 622.236 339.822 620.419 341.729 619.539C345.366 622.271 352.528 622.783 353.439 616.477C355.013 616.454 358.174 616.389 359.777 616.357C359.693 614.931 359.564 612.052 359.503 610.588C360.847 613.703 362.143 616.879 363.387 620.101C369.43 611.494 380.032 613.965 388.338 610.814C389.182 612.395 390.899 615.55 391.774 617.139ZM370.817 643.253C321.029 654.565 270.311 661.324 221.584 679.079C222.635 675.793 225.097 673.803 228.256 673.499C272.196 659.256 317.324 652.105 362.101 643.332C364.981 642.691 367.956 642.757 370.817 643.253ZM281.321 340.142C274.679 339.725 267.99 341.837 261.309 341.304C261.561 339.657 262.005 337.064 262.214 335.43C259.464 338.806 256.615 341.907 253.169 344.679C251.121 333.238 263.064 333.202 270.32 332.573C269.614 330.921 268.184 327.607 267.478 325.955C268.837 328.222 270.19 330.459 271.466 332.844C273.28 332.722 276.924 332.491 278.737 332.369C279.608 334.931 280.482 337.508 281.321 340.142ZM356.197 662.398L355.721 662.833C352.945 661.39 347.727 663.03 346.61 659.374C348.883 656.815 351.438 656.376 354.293 658.068C354.765 659.148 355.722 661.303 356.197 662.398ZM273.118 363.175C260.97 365.944 248.688 368.415 236.436 366.737C235.765 367.337 234.49 368.568 233.825 369.198C203.538 368.77 172.946 375.483 142.652 377.096C158.986 371.157 176.163 372.63 192.819 369.087C219.572 367.152 246.336 364.274 273.118 363.175ZM328.126 629.927C321.253 630.418 313.981 632.884 307.29 630.76C303.611 636.195 296.852 636.415 291.408 638.453C291.862 635.062 292.249 631.72 292.614 628.418C299.619 626.52 306.761 626.623 313.798 626.58C314.688 625.934 316.485 624.575 317.389 623.926C318.86 626.145 320.738 627.965 322.96 629.371C322.236 627.629 320.779 624.099 320.052 622.342C324.778 622.128 327.14 625.247 328.126 629.927ZM255.841 334.38C254.18 335.272 250.909 337.008 249.277 337.892C250.228 339.093 252.185 341.544 253.168 342.753C246.078 343.607 239 344.442 231.914 345.39C232.053 341.943 232.134 338.512 232.164 335.127C240.06 335.052 247.966 334.64 255.841 334.38ZM295.653 643.948C295.462 640.369 296.989 639.26 300.211 640.659C300.462 644.157 298.921 645.27 295.653 643.948ZM228.994 343.063C226.689 345.918 224.879 345.751 223.598 342.571C225.934 339.565 227.741 339.716 228.994 343.063ZM290.616 644.28C288.095 645.123 285.529 646.043 282.988 647.02C282.749 646.194 282.277 644.573 282.027 643.767C283.364 644.08 286.022 644.696 287.356 644.994C287.954 643.41 289.107 640.255 289.676 638.679C279.24 642.342 268.061 642.405 257.838 647.076L257.553 648.477C260.07 653.99 267.406 647.62 271.897 647.759C271.992 648.465 272.156 649.837 272.222 650.552C267.26 650.878 262.336 651.242 257.326 651.63L257.172 655.767C255.16 652.885 253.698 649.564 250.756 647.737C235.593 654.147 219.721 657.663 203.882 660.963C205.582 658.42 207.272 655.912 208.941 653.442C215.963 651.555 222.984 649.589 229.978 647.79C230.171 645.458 230.326 643.169 230.467 640.964C232.409 641.954 234.319 643.016 236.213 644.147C237.905 643.486 241.233 642.115 242.918 641.424C243.235 639.106 243.514 636.83 243.765 634.642C248.594 636.646 253.409 638.574 258.83 637.498C258.426 636.065 257.634 633.211 257.223 631.748C258.378 633.132 260.663 635.858 261.811 637.212C266.394 635.429 270.952 633.829 275.506 632.134C276.727 634.391 277.942 636.698 279.157 639.004C278.669 637.228 277.685 633.631 277.166 631.848C279.064 631.464 282.817 630.709 284.704 630.344C284.843 632.28 285.137 636.149 285.26 638.074C286.27 634.273 286.892 630.198 290.557 628.304C290.704 633.583 290.633 638.907 290.616 644.28ZM169.515 345.598C171.679 346.096 176.009 347.108 178.175 347.621C178.231 348.211 178.374 349.318 178.427 349.893C173.659 348.971 168.783 348.733 163.885 348.994L163.524 348.632C165.206 348.149 168.505 347.169 170.154 346.679C168.73 345.546 165.877 343.248 164.465 342.095C171.783 342.245 179.133 341.478 186.385 339.909C181.617 344.212 175.157 343.872 169.515 345.598ZM238.063 657.044C236.893 661.113 234.861 661.741 231.965 658.993C233.198 654.86 235.241 654.212 238.063 657.044ZM160.754 348.749C161.756 352.516 155.403 352.178 154.088 349.979C153.049 345.951 159.52 346.272 160.754 348.749ZM209.72 567.1C201.194 567.142 192.68 568.01 184.231 570.054C184.16 569.309 184.014 567.804 183.943 567.059C192.55 566.278 201.39 564.523 209.72 567.1ZM148.719 346.325C148.683 348.677 148.612 351.086 148.501 353.522C147.831 351.589 146.504 347.721 145.834 345.788C143.28 346.386 138.145 347.605 135.562 348.211L136.517 352.661C138.199 351.875 141.541 350.342 143.24 349.567C143.151 350.5 142.996 352.327 142.907 353.26C136.485 353.036 130.1 354.842 123.671 354.811C130.997 344.86 144.928 344.893 155.687 343.705C153.935 344.367 150.457 345.667 148.719 346.325ZM228.564 660.304C227.281 663.798 225.521 664.271 223.278 661.756C224.573 658.163 226.311 657.664 228.564 660.304ZM196.381 697.229C191.195 699.418 185.944 701.434 180.574 703.149C184.736 698.393 190.566 695.85 196.381 697.229ZM225.098 834.091C218.104 838.041 210.287 838.906 202.705 838.113C210.126 836.322 217.613 834.944 225.098 834.091ZM186.625 707.027C186.286 703.394 187.735 702.275 190.961 703.689C191.347 707.181 189.898 708.3 186.625 707.027ZM97.7191 353.195C94.8776 354.414 92.0395 355.728 89.1678 357.179C91.4992 356.452 96.1477 355.001 98.4791 354.274L100.86 359.331C97.8865 360.189 91.9192 361.958 88.9454 362.816C87.8069 360.743 86.6371 358.742 85.4906 356.783C85.8115 358.637 86.491 362.382 86.8089 364.221C85.1816 364.132 81.9096 363.942 80.2679 363.856C79.7348 362.618 78.6254 360.155 78.0635 358.925C78.2997 360.197 78.7753 362.757 79.0115 364.03C70.3526 365.702 61.7543 367.835 53.2521 370.531C52.7608 368.199 51.8298 363.488 51.3499 361.136C58.6654 359.12 65.9636 357.093 73.3379 355.682C72.6941 357.342 71.3922 360.667 70.7197 362.335C71.6122 360.781 73.3972 357.673 74.2753 356.123C81.8355 354.039 89.4236 352.25 97.0093 350.525L97.7191 353.195ZM175.955 694.301C164.763 701.44 152.537 706.731 140.043 710.36C146.555 703.741 155.602 701.802 163.51 698.251C167.391 695.836 171.55 694.139 175.955 694.301ZM176.803 703.352C172.645 706.594 168.894 711.283 163.472 711.738C166.219 708.808 169.002 706.14 171.77 703.396C173.497 703.299 175.149 703.286 176.803 703.352ZM96.7681 400.018C95.0891 396.901 96.0074 395.323 99.526 395.302C101.233 398.332 100.315 399.909 96.7681 400.018ZM169.73 841.298C164.692 838.238 158.949 836.838 153.452 834.845C158.502 834.653 163.495 834.795 168.469 834.991C168.794 836.557 169.42 839.728 169.73 841.298ZM50.8898 370.948C42.879 373.365 34.8493 375.993 27.017 379.236C26.7186 377.726 26.096 374.729 25.7832 373.223C27.8874 373.037 29.9431 372.912 31.9615 372.829C31.56 371.873 30.7775 369.988 30.376 369.032C31.8532 368.67 34.8424 367.967 36.3256 367.635C37.1089 368.755 38.664 371.015 39.4676 372.162C38.7437 370.419 37.2815 366.939 36.5461 365.216L41.8239 363.416C42.5017 365.155 43.8512 368.603 44.529 370.342C44.5134 368.419 44.4509 364.645 44.4353 362.722L49.1726 361.183C49.5895 363.6 50.4526 368.505 50.8898 370.948ZM22.6059 380.811C18.2738 381.25 13.895 381.606 9.5597 381.568C13.2935 376.564 18.2857 373.012 23.5984 370.389C23.2894 373.82 22.9575 377.289 22.6059 380.811Z" fill="#FFEC3A"/>
<path d="M1015.53 397.697C1023.53 399.655 1031.04 403.373 1036.62 409.698C1029.96 404.844 1018.88 406.425 1015.53 397.697Z" fill="#FFEC3A"/>
<path d="M1063.02 724.254C1070.26 727.189 1077.67 730.291 1083.14 736.182C1079.58 734.824 1076.14 733.162 1072.62 731.857C1072.98 734.507 1073.72 739.788 1074.05 742.461C1071.3 734.606 1070.52 725.942 1060.81 725.222C1060.32 724.038 1059.36 721.686 1058.86 720.506C1053.94 719.367 1048.98 718.271 1044 717.309C1043.15 716.292 1041.41 714.282 1040.55 713.315C1039.55 714.109 1037.55 715.697 1036.54 716.491C1034.5 713.569 1031.61 710.853 1033 706.635C1034.64 707.66 1037.9 709.727 1039.51 710.757C1048.15 707.338 1052.55 719.545 1060.81 719.832C1061.33 720.958 1062.44 723.159 1063.02 724.254Z" fill="#FFEC3A"/>
<path d="M1030.49 682.599C1033.8 683.565 1032.14 689.961 1028.63 688.631C1025.47 687.495 1027.05 681.395 1030.49 682.599Z" fill="#FFEC3A"/>
<path d="M939.159 608.091C939.819 611.876 940.457 615.716 941.071 619.595C938.729 619.41 933.967 619.06 931.59 618.868C930.438 613.038 929.292 607.157 928.533 601.335C929.977 603.712 932.893 608.443 934.353 610.816C935.537 610.152 937.95 608.795 939.159 608.091Z" fill="#FFEC3A"/>
<path d="M320.467 645.672C320.433 647.715 320.408 651.804 320.396 653.809C310.828 661.289 298.699 661.239 289.139 669.142C282.308 674.71 266.051 673.925 267.782 686.6C265.936 683.446 266.533 679.784 267.316 676.307C271.44 673.418 275.452 670.337 279.496 667.422C279.168 666.423 278.533 664.374 278.202 663.361C279.23 664.058 281.268 665.441 282.281 666.142C295.288 659.758 307.323 651.195 320.467 645.672Z" fill="#FFEC3A"/>
</svg>
